<?xml version="1.0" encoding="UTF-8"?><svg id="Layer_1" xmlns="http://www.w3.org/2000/svg" viewBox="0 0 500 500"><defs><style>.cls-1{fill:#fff;}.cls-2{fill:#1e232d;}.cls-3{fill:#1f4e63;}.cls-4{fill:#4ea6cc;}</style></defs><path class="cls-4" d="M147.74,397.16c-46.91-8.96-83.4-50.8-83.4-50.8-17.32-18.15-27.19-35.96-31.96-45.68-11.55-23.56-17.03-48.08-18.83-72.92-3.33-45.95,5.69-71.74,8.9-81.95,3.21-10.21,.52-22.25,0-24.74-.52-2.49,13.42-9.1,20.95-8.77,7.53,.33,15.23,4.2,16.36,13.48,1.96,16.1-4.38,37.19-6.68,59.83-3.99,39.34,9.28,59.09,17.54,74.36,8.64,15.97,27.75,36,66.24,58.39,0,0,5.7,3.2,7.56-.75,1.86-3.96-9.63-17.6-14.24-25.56-12.96-22.39-34.17-65.33-36.13-101.72-1.96-49.49,6.9-76.14,36.38-110.36,29.95-34.76,70.47-46.43,87.55-48.51,14.79-1.8,43.87-1.13,65.49,4.22,21.53,5.33,47.31,11.72,79.34,44.68,30.81,31.71,39.93,66.37,37.18,109.44s-34.36,101.65-42.42,113.04c-8.05,11.39-6.29,16.98-5.3,17.18,8.25,1.67,16.24-3.66,17.67-4.61,21.9-14.53,55.03-39.84,66.57-84.24,6.07-23.36,10.22-48.56,6.68-67.16-1.57-8.25-2.36-19.06-2.36-21.6,0-8.25,3.6-14.2,8.64-17.28,8.12-6.28,19.77-4.65,24.15-3.53,4.58,.59,3.84,6.72,3.53,9.62-.26,2.49-3.73,10.8-.79,17.67,21.48,50.12,8.05,106.63,2.55,123.52-8.29,25.48-19.7,47.25-46.34,74.23-24.16,24.46-55.01,40.81-83.06,44.77l-4.81,.74c-1.17,.33-1.58,2.77-.64,3.53,2.67,2.18,7.35,3.63,12.67,5.55,6.08,2.2,17.72,4.32,29.9,3.53,20.46-1.32,27.84-5.66,43.46-18.59,3.8-3.14,23.21-16.65,24.35-17.48,11.72-8.51,26.2-1.58,28.54,0,2.62,1.77,9.03,4.64,9.03,7.79,0,1.37-.13,1.44-4.58,2.62-1.59,.42-18.66,11.22-37.44,30.63-23.3,24.09-31.16,31.16-50.53,38.75-23.05,8.55-43.46,6.28-58.65,4.97-10.47-.9-34.37-8.15-48.44-15.19-7.33-3.67-21.63-9.81-36.92-21.93-3.47-2.75-5.96-3.27-8.54-3.14-3.83,.19-5.99,.82-12.67,6.22-3.68,2.98-17.69,18.01-28.02,23.04-19.9,9.69-49.22,11.78-82.21,4.19-28.8-6.63-65.52-33.06-73.18-38.26-10.66-7.24-27.39-22.39-38.88-27.98-3.59-1.75-6.09-.69-10.41-1.37-2.34-.37-2.21-9.7,1.37-13.84,3.58-4.15,10.08-8.35,18.85-7.95,8.5,.38,17.26,3.24,30.9,9.82,11.88,5.73,22.32,14.96,33.51,19.77,32.32,13.89,62.79,11.56,63.18,11.11,.14-.16-.13-.47-1.64-.76Z"/><path class="cls-3" d="M133.57,86.81c-8.73,7.2-11.72,18-6.67,24.12,5.05,6.12,16.22,5.24,24.95-1.96,8.73-7.2,11.72-18,6.67-24.12-5.05-6.12-16.22-5.24-24.95,1.96Z"/><path class="cls-3" d="M182.39,60.93c-2.58-4.46-9.77-5.13-16.07-1.5-6.3,3.64-9.32,10.2-6.74,14.67,2.58,4.46,9.77,5.13,16.07,1.5,6.3-3.64,9.32-10.2,6.74-14.67Z"/><path class="cls-3" d="M127.26,119.07c-2.96-1.57-7.01,.3-9.06,4.16-2.04,3.86-1.3,8.26,1.66,9.83,2.96,1.57,7.01-.3,9.06-4.16,2.04-3.86,1.3-8.26-1.66-9.83Z"/><path class="cls-3" d="M381.52,176.76c7.96-3.45,10.42-15.46,5.5-26.82-4.93-11.36-15.37-17.78-23.33-14.33-7.96,3.45-10.42,15.46-5.5,26.82,4.93,11.36,15.37,17.78,23.33,14.33Z"/><path class="cls-3" d="M360.99,202.21c4.93-2.74,5.79-10.6,1.92-17.56-3.87-6.96-11-10.37-15.93-7.63-4.93,2.74-5.79,10.6-1.92,17.56,3.87,6.96,11,10.37,15.93,7.63Z"/><path class="cls-3" d="M347.74,142.04c2.57-2.14,2.39-6.6-.4-9.96-2.79-3.36-7.14-4.35-9.72-2.2-2.57,2.14-2.39,6.6,.4,9.96,2.79,3.36,7.14,4.35,9.72,2.2Z"/><g><path class="cls-2" d="M292.57,284.86c-3.98-1.65-8.75,.72-10.64,5.29-1.89,4.57-.2,9.61,3.79,11.26,3.98,1.65,8.75-.72,10.64-5.29,1.89-4.57,.2-9.61-3.79-11.26Z"/><path class="cls-2" d="M202.16,284.86c-3.98,1.65-5.68,6.69-3.79,11.26,1.89,4.57,6.66,6.94,10.64,5.29,3.98-1.65,5.68-6.69,3.79-11.26-1.89-4.57-6.66-6.94-10.64-5.29Z"/><path class="cls-1" d="M299.55,268.01c-12.08-5-26.57,2.21-32.3,16.07-5.73,13.86-.58,29.2,11.5,34.19,12.08,5,26.57-2.21,32.3-16.06,5.74-13.86,.58-29.2-11.5-34.2Zm-3.19,28.12c-1.89,4.57-6.66,6.94-10.64,5.29-3.98-1.65-5.68-6.69-3.79-11.26,1.89-4.57,6.66-6.94,10.64-5.29,3.98,1.65,5.68,6.69,3.79,11.26Z"/><path class="cls-1" d="M195.18,268.01c-12.08,5-17.24,20.34-11.5,34.2,5.73,13.86,20.23,21.06,32.3,16.06,12.08-5,17.24-20.34,11.5-34.19-5.73-13.86-20.23-21.06-32.3-16.07Zm13.83,33.41c-3.98,1.65-8.75-.72-10.64-5.29-1.89-4.57-.2-9.61,3.79-11.26,3.98-1.65,8.75,.72,10.64,5.29,1.89,4.57,.2,9.61-3.79,11.26Z"/></g><path class="cls-3" d="M493.96,229.04c-.3,3.37-.71,6.74-1.2,10.09-.04,.25-.05,.51-.09,.76,.16,.04,.31,.08,.47,.1,3.04,.34,6.04-4.31,6.71-10.38,.67-6.07-1.24-11.27-4.28-11.6-.33-.04-.65,0-.97,.07-.01,.38-.05,.76-.07,1.13-.12,3.22-.29,6.45-.57,9.66,0,.05,0,.11-.01,.17Z"/><path class="cls-3" d="M460.34,324.28c-2.24,3.2-4.57,6.34-7.01,9.39,.27,.54,.64,1,1.12,1.32,2.81,1.9,8.16-1.12,11.95-6.75,3.79-5.62,4.59-11.72,1.78-13.61-.37-.25-.79-.41-1.24-.49-2.03,3.36-4.17,6.64-6.4,9.85l-.2,.29Z"/><path class="cls-3" d="M378.84,389.27c-3.49,1.23-7.02,2.36-10.57,3.38-.33,.09-.64,.22-.97,.31-.29,.9-.32,1.77-.03,2.57,1.27,3.46,7.9,4.21,14.81,1.68,6.92-2.53,11.5-7.39,10.23-10.84-.27-.73-.78-1.33-1.48-1.81-.2,.09-.41,.15-.61,.24-2.96,1.27-5.96,2.43-8.98,3.55-.81,.3-1.6,.64-2.41,.93Z"/><path class="cls-3" d="M425.75,361.81c-2.63,2.35-5.31,4.66-8.08,6.87-.02,.01-.04,.03-.06,.04,.06,.88,.35,1.64,.88,2.22,2.25,2.42,8,.74,12.84-3.76,4.84-4.5,6.95-10.1,4.7-12.53-.45-.49-1.06-.8-1.76-.97h0c-2.52,2.56-5.11,5.05-7.78,7.46-.24,.22-.49,.44-.74,.66Z"/><path class="cls-3" d="M483.26,153.23c.87,2.38,1.69,4.79,2.46,7.2,.08,.26,.18,.52,.27,.78,.23-.01,.45-.05,.67-.13,2.31-.87,2.78-5.32,1.05-9.94-1.73-4.63-5.01-7.67-7.32-6.81-.19,.07-.36,.17-.52,.29,.09,.21,.16,.42,.25,.63,.84,2.01,1.64,4.04,2.41,6.08,.24,.64,.5,1.27,.73,1.91Z"/><path class="cls-3" d="M489.06,265.99c-.18-.06-.36-.1-.54-.12-.14,.47-.32,.94-.46,1.41-.69,2.27-1.43,4.53-2.21,6.78-.28,.82-.56,1.64-.85,2.45-1.07,2.96-2.2,5.9-3.43,8.82-.36,.86-.76,1.71-1.14,2.57,.31,.27,.66,.47,1.04,.6,3.11,1.05,7.32-3.14,9.42-9.36,2.09-6.22,1.27-12.1-1.84-13.15Z"/><path class="cls-3" d="M7.42,191.54c-.27,3.38-.42,6.76-.5,10.15,0,.26-.03,.51-.04,.77-.16,.02-.32,.03-.48,.02-3.05-.18-5.24-5.26-4.89-11.36,.35-6.1,3.1-10.9,6.15-10.73,.33,.02,.64,.1,.95,.23-.05,.38-.07,.75-.12,1.13-.42,3.2-.79,6.41-1.04,9.62,0,.05-.01,.11-.02,.17Z"/><path class="cls-3" d="M19.42,290.47c1.56,3.58,3.22,7.12,5,10.6-.37,.48-.82,.85-1.36,1.07-3.13,1.3-7.78-2.72-10.38-8.99-2.6-6.26-2.17-12.39,.96-13.69,.41-.17,.85-.25,1.31-.24,1.32,3.69,2.77,7.33,4.32,10.92l.14,.32Z"/><path class="cls-3" d="M83.01,371.61c2.94,2.25,5.95,4.39,9.02,6.46,.28,.19,.55,.4,.83,.59,0,.94-.24,1.79-.76,2.46-2.27,2.9-8.81,1.58-14.61-2.95-5.8-4.53-8.67-10.56-6.41-13.46,.48-.61,1.15-1.02,1.96-1.27,.16,.14,.34,.27,.51,.42,2.43,2.12,4.93,4.15,7.46,6.13,.68,.53,1.33,1.1,2.01,1.62Z"/><path class="cls-3" d="M44.2,334.83c2.16,2.79,4.37,5.54,6.69,8.22,.02,.02,.03,.04,.05,.05-.22,.86-.64,1.55-1.27,2.02-2.65,1.97-8-.73-11.94-6.03-3.94-5.3-4.99-11.2-2.34-13.17,.54-.4,1.19-.6,1.91-.63h0c2.01,2.98,4.11,5.89,6.29,8.76,.2,.26,.41,.52,.61,.78Z"/><path class="cls-3" d="M16.22,148.1c-.69,2.44-1.33,4.9-1.91,7.36-.06,.27-.14,.53-.21,.8-.23,0-.45-.02-.67-.08-2.37-.69-3.18-5.09-1.8-9.83,1.38-4.74,4.42-8.03,6.79-7.34,.19,.06,.37,.15,.54,.25-.07,.21-.13,.43-.2,.65-.69,2.07-1.33,4.15-1.95,6.24-.19,.65-.4,1.3-.59,1.96Z"/><path class="cls-3" d="M6.99,228.87c.18-.02,.37-.01,.55,0,.03,.49,.1,.99,.14,1.48,.17,2.37,.39,4.73,.66,7.1,.1,.86,.18,1.72,.29,2.58,.39,3.12,.84,6.24,1.4,9.35,.16,.92,.36,1.84,.54,2.76-.36,.19-.75,.31-1.15,.35-3.26,.34-6.45-4.68-7.12-11.21-.67-6.52,1.43-12.08,4.69-12.42Z"/><path class="cls-3" d="M492.97,186.87c.31,2.52,.55,5.04,.75,7.57,.02,.27,.06,.55,.08,.82,.23,.04,.45,.05,.68,.03,2.45-.31,3.93-4.54,3.3-9.44-.63-4.9-3.12-8.61-5.57-8.3-.2,.03-.39,.09-.58,.16,.04,.22,.06,.45,.1,.67,.36,2.15,.67,4.31,.96,6.47,.09,.68,.2,1.35,.28,2.02Z"/><path class="cls-3" d="M445.44,424.68c-2.38,2.41-4.83,4.75-7.34,7.03-.19,.17-.36,.36-.55,.53,.09,.13,.19,.26,.3,.38,2.13,2.19,7.41,.51,11.78-3.75,4.38-4.26,6.2-9.49,4.07-11.68-.23-.23-.5-.42-.79-.56-.25,.28-.52,.55-.77,.83-2.14,2.42-4.32,4.79-6.59,7.1-.04,.04-.08,.08-.12,.12Z"/><path class="cls-3" d="M265.21,433.07c-3.13-1.98-6.19-4.06-9.19-6.22-.27-.2-.57-.37-.84-.57-.89,.33-1.59,.85-2.04,1.57-1.94,3.13,1.57,8.81,7.84,12.68,6.26,3.87,12.91,4.47,14.85,1.34,.41-.66,.56-1.44,.51-2.28-.19-.1-.37-.22-.57-.33-2.83-1.54-5.6-3.18-8.34-4.87-.73-.45-1.49-.86-2.22-1.32Z"/><path class="cls-3" d="M359.3,461.72c-3.53-.09-7.06-.25-10.59-.54-.02,0-.05,0-.07,0-.56,.69-.88,1.43-.88,2.22-.02,3.3,5.32,6.02,11.92,6.06,6.61,.04,11.98-2.6,12.01-5.9,0-.67-.22-1.31-.62-1.91h0c-3.59,.14-7.18,.17-10.78,.1-.33,0-.66-.02-.99-.03Z"/><path class="cls-3" d="M476.56,392.76c-1.95,1.63-3.93,3.21-5.94,4.75-.22,.17-.42,.35-.64,.51,.09,.21,.2,.41,.35,.58,1.6,1.88,5.95,.82,9.71-2.37,3.77-3.19,5.53-7.31,3.93-9.19-.13-.15-.28-.28-.45-.39-.17,.15-.34,.29-.51,.45-1.61,1.48-3.25,2.91-4.91,4.32-.52,.44-1.02,.9-1.54,1.34Z"/><path class="cls-3" d="M418.75,448.44c-.07-.17-.16-.33-.26-.49-.45,.21-.92,.38-1.37,.58-2.17,.97-4.35,1.9-6.56,2.79-.8,.32-1.6,.66-2.41,.97-2.94,1.13-5.9,2.22-8.9,3.21-.89,.29-1.79,.55-2.68,.83,0,.41,.08,.81,.23,1.18,1.25,3.03,7.18,3.46,13.24,.95,6.06-2.5,9.96-6.99,8.71-10.02Z"/><path class="cls-3" d="M310.16,452.71c-3.34-1.15-6.65-2.36-9.94-3.7-.02-.01-.04-.02-.07-.03-.74,.49-1.27,1.1-1.51,1.85-1.02,3.14,3.26,7.34,9.55,9.37,6.29,2.03,12.21,1.13,13.23-2.02,.2-.64,.18-1.32-.02-2.01h0c-3.46-.95-6.9-2-10.31-3.15-.31-.1-.62-.22-.93-.32Z"/><path class="cls-3" d="M50.83,416.44c2.83,1.86,5.72,3.62,8.65,5.33,.22,.13,.43,.27,.65,.4-.06,.15-.13,.3-.21,.43-1.62,2.59-7.13,2.06-12.31-1.18-5.18-3.24-8.06-7.97-6.44-10.56,.17-.28,.4-.51,.66-.72,.3,.23,.63,.43,.93,.65,2.6,1.91,5.24,3.77,7.93,5.55,.05,.03,.09,.06,.14,.09Z"/><path class="cls-3" d="M224.3,438.85c2.75-2.47,5.43-5.03,8.03-7.66,.24-.24,.5-.46,.74-.7,.93,.18,1.71,.57,2.27,1.21,2.43,2.77-.08,8.95-5.62,13.81-5.53,4.86-11.99,6.56-14.42,3.79-.51-.58-.79-1.32-.88-2.16,.17-.13,.33-.28,.5-.42,2.53-1.99,4.99-4.07,7.41-6.19,.65-.56,1.33-1.1,1.97-1.67Z"/><path class="cls-3" d="M131.67,455.41c3.46,.67,6.94,1.27,10.46,1.75,.02,0,.05,0,.07,0,.4,.79,.55,1.59,.38,2.36-.69,3.23-6.49,4.74-12.95,3.36-6.46-1.38-11.15-5.11-10.46-8.34,.14-.65,.5-1.23,1.02-1.73h0c3.47,.91,6.97,1.71,10.51,2.42,.32,.07,.65,.12,.97,.19Z"/><path class="cls-3" d="M20.82,394.14c2,1.57,4.03,3.08,6.09,4.56,.22,.16,.44,.33,.66,.49-.08,.21-.19,.41-.33,.59-1.54,1.93-5.92,1.01-9.78-2.06-3.87-3.07-5.75-7.13-4.22-9.06,.13-.16,.28-.29,.44-.41,.17,.15,.35,.28,.52,.43,1.65,1.42,3.34,2.81,5.04,4.17,.53,.43,1.05,.87,1.59,1.29Z"/><path class="cls-3" d="M75.71,434.15c.09-.16,.2-.31,.31-.45,.43,.25,.87,.47,1.3,.72,2.05,1.2,4.13,2.35,6.23,3.47,.76,.41,1.52,.82,2.29,1.22,2.8,1.44,5.63,2.84,8.51,4.14,.85,.39,1.72,.74,2.58,1.11-.05,.41-.16,.79-.36,1.15-1.57,2.88-7.51,2.67-13.27-.46-5.76-3.14-9.16-8.01-7.59-10.89Z"/><path class="cls-3" d="M180.54,457.54c3.49-.48,6.98-1.03,10.46-1.7,.02,0,.05-.01,.07-.02,.63,.62,1.03,1.33,1.12,2.11,.39,3.28-4.62,6.57-11.18,7.34-6.56,.78-12.2-1.26-12.58-4.54-.08-.66,.07-1.33,.4-1.97h0c3.58-.26,7.15-.62,10.73-1.09,.33-.04,.65-.09,.98-.14Z"/></svg>