<svg width="54" height="51" viewBox="0 0 54 51" fill="none" xmlns="http://www.w3.org/2000/svg">
<path d="M22 0.5L18.5 1.5L13 3L9 5L5.5 7.5L3 10.5L1.5 14.5L0.5 18.5V22.5L1.5 26L3.5 30L5.5 32.5L9 35.5L11.5 38L14.5 39.5L14 41.5L12.5 42L10.5 41.5L9 40.5L8 39.5L7 38L6.5 36L5.5 35.5L3.5 39.5V43L4.5 45L5.5 46L7 47L9 48H14L15.5 47V44H17L17.5 46L17 47L15.5 48L17.5 50H22L24.5 49L26.7496 45.8505L29 49.0101L31.5 50H36L38 48.0202L36.5 47.0303L36 46.0404L36.5 44.0606H38V47.0303L39.5 48.0202H44.5L46.5 47.0303L48 46.0404L49 45.0505L50 43.0707V39.6061L48 35.6465L47 36.1414L46.5 38.1212L45.5 39.6061L44.5 40.596L43 41.5859L41 42.0808L39.5 41.5859L39 39.6061L42 38.1212L44.5 35.6465L48 32.6768L50 30.202L52 26.2424L53 22.7778V18.8182L52 14.8586L50.5 10.899L48 7.92929L44.5 5.45455L40.5 3.47475L36 1.5L31.5 0.5H22Z" fill="#3C6C86"/>
<path d="M3.5 10L5 11.5L6.5 12L8.5 11.5L10 10.5L10.5 8.5V7L10 5.5L9.5 5L7 6.5L5 8L3.5 10Z" fill="black"/>
<path d="M11 4L12 5.5L13.5 6.5L15.5 6L17 4.5V2L13 3L11 4Z" fill="black"/>
<path d="M30 0.5L29.5 2V4L30.5 4.5L32 5.5H36L38 3.5V2.5L35.5 1.5L31.5 0.5H30Z" fill="black"/>
<path d="M20.5 1L20 3V4.5L21.5 5.5H23.5L25 4.5L25.5 3L25 1L24.5 0.5H22L20.5 1Z" fill="black"/>
<path d="M8.5 14.8125L7.5 16.5V18L8 19.5L9 20L10.5 19.5L11 18V16.5L10 15.25L8.5 14.8125Z" fill="black"/>
<path d="M16 8.5L14.5 9.5L14 11.5V13.5L14.5 14.8125L16.5 16.5H19L20.5 15.5L21.5 14V12L21 10L20 8.5L18.5 8H17L16 8.5Z" fill="black"/>
<path d="M24.5 13.5L23 14V15.6875L24 16.5L25 16L25.5 14.8125V14L24.5 13.5Z" fill="black"/>
<path d="M28.25 7L27.5 8V9.5L28.25 10.5L29 11H30.5L31.5 10V8.5L31 7.5L30 6.5H29L28.25 7Z" fill="black"/>
<path d="M36.5 9.5L35.3125 11L35 12.5L35.3125 14L36.5 15.25L38 16H40L41 14.8125L41.5 13V11.5L40.5 10L39 9H37.5L36.5 9.5Z" fill="black"/>
<path d="M44.5 15.6875L43.5 17V18.5L45 20L46.5 20.5L48.5 20L49 19V17L48.5 15.6875L47 14.8125H45.5L44.5 15.6875Z" fill="black"/>
<path d="M40 3.5V4L41 5.5L42.5 6L44 5.5L40 3.5Z" fill="black"/>
<path d="M46.5 7.5V9.5L47.5 11H49L50 10.5L48.5 9L46.5 7.5Z" fill="black"/>
<path d="M22 0.5V0H21.93L21.8626 0.019238L22 0.5ZM18.5 1.5L18.6316 1.98242L18.6374 1.98076L18.5 1.5ZM13 3L12.8684 2.51762L12.8207 2.53064L12.7764 2.55279L13 3ZM9 5L8.77639 4.55279L8.7413 4.57033L8.70938 4.59313L9 5ZM5.5 7.5L5.20938 7.09313L5.15706 7.13051L5.11589 7.17991L5.5 7.5ZM3 10.5L2.61589 10.1799L2.56161 10.245L2.53184 10.3244L3 10.5ZM1.5 14.5L1.03184 14.3244L1.02184 14.3511L1.01493 14.3787L1.5 14.5ZM0.5 18.5L0.0149287 18.3787L0 18.4384V18.5H0.5ZM0.5 22.5H0V22.57L0.019238 22.6374L0.5 22.5ZM1.5 26L1.01924 26.1374L1.032 26.182L1.05279 26.2236L1.5 26ZM3.5 30L3.05279 30.2236L3.07648 30.271L3.10957 30.3123L3.5 30ZM5.5 32.5L5.10957 32.8123L5.13892 32.849L5.1746 32.8796L5.5 32.5ZM9 35.5L9.35355 35.1464L9.33998 35.1329L9.3254 35.1204L9 35.5ZM11.5 38L11.1464 38.3536L11.2038 38.4109L11.2764 38.4472L11.5 38ZM14.5 39.5L14.9851 39.6213L15.0823 39.2322L14.7236 39.0528L14.5 39.5ZM14 41.5L14.1581 41.9743L14.4185 41.8875L14.4851 41.6213L14 41.5ZM12.5 42L12.3787 42.4851L12.52 42.5204L12.6581 42.4743L12.5 42ZM10.5 41.5L10.2226 41.916L10.2947 41.9641L10.3787 41.9851L10.5 41.5ZM9 40.5L8.64645 40.8536L8.68146 40.8886L8.72265 40.916L9 40.5ZM8 39.5L7.58397 39.7774L7.61144 39.8185L7.64645 39.8536L8 39.5ZM7 38L6.51493 38.1213L6.53593 38.2053L6.58397 38.2774L7 38ZM6.5 36L6.98507 35.8787L6.9293 35.6556L6.72361 35.5528L6.5 36ZM5.5 35.5L5.72361 35.0528L5.27639 34.8292L5.05279 35.2764L5.5 35.5ZM3.5 39.5L3.05279 39.2764L3 39.382V39.5H3.5ZM3.5 43H3V43.118L3.05279 43.2236L3.5 43ZM4.5 45L4.05279 45.2236L4.08907 45.2962L4.14645 45.3536L4.5 45ZM5.5 46L5.14645 46.3536L5.18146 46.3886L5.22265 46.416L5.5 46ZM7 47L6.72265 47.416L6.74855 47.4333L6.77639 47.4472L7 47ZM9 48L8.77639 48.4472L8.88197 48.5H9V48ZM14 48V48.5H14.1514L14.2774 48.416L14 48ZM15.5 47L15.7774 47.416L16 47.2676V47H15.5ZM15.5 44V43.5H15V44H15.5ZM17 44L17.4851 43.8787L17.3904 43.5H17V44ZM17.5 46L17.9472 46.2236L18.0299 46.0582L17.9851 45.8787L17.5 46ZM17 47L17.2774 47.416L17.3878 47.3424L17.4472 47.2236L17 47ZM15.5 48L15.2226 47.584L14.7152 47.9223L15.1464 48.3536L15.5 48ZM17.5 50L17.1464 50.3536L17.2929 50.5H17.5V50ZM22 50V50.5H22.0963L22.1857 50.4642L22 50ZM24.5 49L24.6857 49.4642L24.8217 49.4098L24.9069 49.2906L24.5 49ZM31.5 0.5L31.6085 0.0119065L31.5549 0H31.5V0.5ZM36 1.5L36.2009 1.04215L36.1562 1.02251L36.1085 1.01191L36 1.5ZM40.5 3.47475L40.7218 3.02663L40.7115 3.02152L40.7009 3.01689L40.5 3.47475ZM44.5 5.45455L44.7887 5.04629L44.7568 5.02375L44.7218 5.00643L44.5 5.45455ZM48 7.92929L48.3825 7.60728L48.3411 7.55813L48.2887 7.52104L48 7.92929ZM50.5 10.899L50.9676 10.7219L50.9374 10.6422L50.8825 10.577L50.5 10.899ZM52 14.8586L52.4848 14.7362L52.4777 14.7083L52.4676 14.6815L52 14.8586ZM53 18.8182H53.5V18.756L53.4848 18.6958L53 18.8182ZM53 22.7778L53.4804 22.9164L53.5 22.8485V22.7778H53ZM52 26.2424L52.4463 26.4679L52.4674 26.4261L52.4804 26.3811L52 26.2424ZM50 30.202L50.3889 30.5163L50.4223 30.4749L50.4463 30.4274L50 30.202ZM48 32.6768L48.3235 33.058L48.3593 33.0276L48.3889 32.991L48 32.6768ZM44.5 35.6465L44.1765 35.2652L44.1619 35.2776L44.1482 35.2911L44.5 35.6465ZM42 38.1212L42.2218 38.5693L42.2943 38.5335L42.3518 38.4766L42 38.1212ZM39 39.6061L38.7782 39.1579L38.4164 39.337L38.5152 39.7285L39 39.6061ZM39.5 41.5859L39.0152 41.7083L39.0825 41.9746L39.3433 42.0607L39.5 41.5859ZM41 42.0808L40.8433 42.5556L40.9802 42.6008L41.1201 42.5662L41 42.0808ZM43 41.5859L43.1201 42.0712L43.2036 42.0506L43.2754 42.0032L43 41.5859ZM44.5 40.596L44.7754 41.0133L44.8166 40.9861L44.8518 40.9513L44.5 40.596ZM45.5 39.6061L45.8518 39.9614L45.887 39.9265L45.9147 39.8854L45.5 39.6061ZM46.5 38.1212L46.9147 38.4005L46.9634 38.3282L46.9848 38.2436L46.5 38.1212ZM47 36.1414L46.7782 35.6933L46.5717 35.7955L46.5152 36.019L47 36.1414ZM48 35.6465L48.4463 35.421L48.2227 34.9783L47.7782 35.1984L48 35.6465ZM50 39.6061H50.5V39.487L50.4463 39.3806L50 39.6061ZM50 43.0707L50.4463 43.2961L50.5 43.1898V43.0707H50ZM49 45.0505L49.3518 45.4058L49.4096 45.3486L49.4463 45.2759L49 45.0505ZM48 46.0404L48.2754 46.4577L48.3166 46.4305L48.3518 46.3957L48 46.0404ZM46.5 47.0303L46.7218 47.4784L46.7496 47.4647L46.7754 47.4476L46.5 47.0303ZM44.5 48.0202V48.5202H44.617L44.7218 48.4683L44.5 48.0202ZM39.5 48.0202L39.2246 48.4375L39.3499 48.5202H39.5V48.0202ZM38 47.0303H37.5V47.2994L37.7246 47.4476L38 47.0303ZM38 44.0606H38.5V43.5606H38V44.0606ZM36.5 44.0606V43.5606H36.1106L36.0152 43.9382L36.5 44.0606ZM36 46.0404L35.5152 45.918L35.4695 46.0991L35.5537 46.2658L36 46.0404ZM36.5 47.0303L36.0537 47.2557L36.1136 47.3744L36.2246 47.4476L36.5 47.0303ZM38 48.0202L38.3518 48.3755L38.7895 47.9422L38.2754 47.6029L38 48.0202ZM36 50V50.5H36.2056L36.3518 50.3553L36 50ZM31.5 50L31.3159 50.4649L31.4046 50.5H31.5V50ZM29 49.0101L28.5927 49.3002L28.6785 49.4206L28.8159 49.475L29 49.0101ZM3.5 10L3.1 9.7L2.83981 10.0469L3.14645 10.3536L3.5 10ZM5 11.5L4.64645 11.8536L4.72991 11.937L4.84189 11.9743L5 11.5ZM6.5 12L6.34189 12.4743L6.48001 12.5204L6.62127 12.4851L6.5 12ZM8.5 11.5L8.62127 11.9851L8.70529 11.9641L8.77735 11.916L8.5 11.5ZM10 10.5L10.2774 10.916L10.4382 10.8088L10.4851 10.6213L10 10.5ZM10.5 8.5L10.9851 8.62127L11 8.56155V8.5H10.5ZM10.5 7H11V6.91886L10.9743 6.84189L10.5 7ZM10 5.5L10.4743 5.34189L10.437 5.22991L10.3536 5.14645L10 5.5ZM9.5 5L9.85355 4.64645L9.57751 4.3704L9.24275 4.57125L9.5 5ZM7 6.5L6.74275 6.07125L6.72063 6.08452L6.7 6.1L7 6.5ZM5 8L4.7 7.6L4.64286 7.64286L4.6 7.7L5 8ZM11 4L10.7764 3.55279L10.2698 3.80608L10.584 4.27735L11 4ZM12 5.5L11.584 5.77735L11.6394 5.86056L11.7226 5.91603L12 5.5ZM13.5 6.5L13.2226 6.91603L13.4067 7.03872L13.6213 6.98507L13.5 6.5ZM15.5 6L15.6213 6.48507L15.7556 6.45148L15.8536 6.35355L15.5 6ZM17 4.5L17.3536 4.85355L17.5 4.70711V4.5H17ZM17 2H17.5V1.35961L16.8787 1.51493L17 2ZM20.5 1L20.3419 0.525658L20.0815 0.612454L20.0149 0.878732L20.5 1ZM20 3L19.5149 2.87873L19.5 2.93845V3H20ZM20 4.5H19.5V4.76759L19.7226 4.91603L20 4.5ZM21.5 5.5L21.2226 5.91603L21.3486 6H21.5V5.5ZM23.5 5.5V6H23.6514L23.7774 5.91603L23.5 5.5ZM25 4.5L25.2774 4.91603L25.4201 4.82086L25.4743 4.65811L25 4.5ZM25.5 3L25.9743 3.15811L26.0204 3.01999L25.9851 2.87873L25.5 3ZM25 1L25.4851 0.878732L25.4515 0.744375L25.3536 0.646447L25 1ZM24.5 0.5L24.8536 0.146447L24.7071 0H24.5V0.5ZM8.5 14.8125L8.64 14.3325L8.26761 14.2239L8.06985 14.5576L8.5 14.8125ZM7.5 16.5L7.06985 16.2451L7 16.363V16.5H7.5ZM7.5 18H7V18.0811L7.02566 18.1581L7.5 18ZM8 19.5L7.52566 19.6581L7.59115 19.8546L7.77639 19.9472L8 19.5ZM9 20L8.77639 20.4472L8.96164 20.5398L9.15811 20.4743L9 20ZM10.5 19.5L10.6581 19.9743L10.8953 19.8953L10.9743 19.6581L10.5 19.5ZM11 18L11.4743 18.1581L11.5 18.0811V18H11ZM11 16.5H11.5V16.3246L11.3904 16.1877L11 16.5ZM10 15.25L10.3904 14.9377L10.2917 14.8142L10.14 14.77L10 15.25ZM16 8.5L15.7764 8.05279L15.7486 8.06671L15.7226 8.08397L16 8.5ZM14.5 9.5L14.2226 9.08397L14.0618 9.1912L14.0149 9.37873L14.5 9.5ZM14 11.5L13.5149 11.3787L13.5 11.4384V11.5H14ZM14 13.5H13.5V13.592L13.5328 13.678L14 13.5ZM14.5 14.8125L14.0328 14.9905L14.0788 15.1113L14.1776 15.1946L14.5 14.8125ZM16.5 16.5L16.1776 16.8821L16.3172 17H16.5V16.5ZM19 16.5V17H19.1514L19.2774 16.916L19 16.5ZM20.5 15.5L20.7774 15.916L20.8606 15.8606L20.916 15.7774L20.5 15.5ZM21.5 14L21.916 14.2774L22 14.1514V14H21.5ZM21.5 12H22V11.9384L21.9851 11.8787L21.5 12ZM21 10L21.4851 9.87873L21.4641 9.79471L21.416 9.72265L21 10ZM20 8.5L20.416 8.22265L20.3209 8.07991L20.1581 8.02566L20 8.5ZM18.5 8L18.6581 7.52566L18.5811 7.5H18.5V8ZM17 8V7.5H16.882L16.7764 7.55279L17 8ZM24.5 13.5L24.7236 13.0528L24.5384 12.9602L24.3419 13.0257L24.5 13.5ZM23 14L22.8419 13.5257L22.5 13.6396V14H23ZM23 15.6875H22.5V15.9255L22.6847 16.0756L23 15.6875ZM24 16.5L23.6847 16.8881L23.9351 17.0915L24.2236 16.9472L24 16.5ZM25 16L25.2236 16.4472L25.389 16.3645L25.4608 16.194L25 16ZM25.5 14.8125L25.9608 15.0065L26 14.9135V14.8125H25.5ZM25.5 14H26V13.691L25.7236 13.5528L25.5 14ZM28.25 7L27.9726 6.58397L27.9014 6.63148L27.85 6.7L28.25 7ZM27.5 8L27.1 7.7L27 7.83333V8H27.5ZM27.5 9.5H27V9.66667L27.1 9.8L27.5 9.5ZM28.25 10.5L27.85 10.8L27.9014 10.8685L27.9726 10.916L28.25 10.5ZM29 11L28.7226 11.416L28.8486 11.5H29V11ZM30.5 11V11.5H30.7071L30.8536 11.3536L30.5 11ZM31.5 10L31.8536 10.3536L32 10.2071V10H31.5ZM31.5 8.5H32V8.38197L31.9472 8.27639L31.5 8.5ZM31 7.5L31.4472 7.27639L31.4109 7.20382L31.3536 7.14645L31 7.5ZM30 6.5L30.3536 6.14645L30.2071 6H30V6.5ZM29 6.5V6H28.8486L28.7226 6.08397L29 6.5ZM30 0.5V0H29.6396L29.5257 0.341886L30 0.5ZM29.5 2L29.0257 1.84189L29 1.91886V2H29.5ZM29.5 4H29V4.30902L29.2764 4.44721L29.5 4ZM30.5 4.5L30.7774 4.08397L30.7514 4.06671L30.7236 4.05279L30.5 4.5ZM32 5.5L31.7226 5.91603L31.8486 6H32V5.5ZM36 5.5V6H36.2071L36.3536 5.85355L36 5.5ZM38 3.5L38.3536 3.85355L38.5 3.70711V3.5H38ZM38 2.5H38.5V2.16148L38.1857 2.03576L38 2.5ZM35.5 1.5L35.6857 1.03576L35.6542 1.02316L35.6213 1.01493L35.5 1.5ZM40 3.5L40.2236 3.05279L39.5 2.69098V3.5H40ZM40 4H39.5V4.15139L39.584 4.27735L40 4ZM41 5.5L40.584 5.77735L40.6791 5.92009L40.8419 5.97434L41 5.5ZM42.5 6L42.3419 6.47434L42.5 6.52705L42.6581 6.47434L42.5 6ZM44 5.5L44.1581 5.97434L45.3033 5.59262L44.2236 5.05279L44 5.5ZM46.5 7.5L46.8 7.1L46 6.5V7.5H46.5ZM46.5 9.5H46V9.65139L46.084 9.77735L46.5 9.5ZM47.5 11L47.084 11.2774L47.2324 11.5H47.5V11ZM49 11V11.5H49.118L49.2236 11.4472L49 11ZM50 10.5L50.2236 10.9472L50.8441 10.637L50.3536 10.1464L50 10.5ZM48.5 9L48.8536 8.64645L48.8284 8.62132L48.8 8.6L48.5 9ZM36.5 9.5L36.2764 9.05279L36.177 9.1025L36.108 9.18965L36.5 9.5ZM35.3125 11L34.9205 10.6896L34.8471 10.7823L34.823 10.898L35.3125 11ZM35 12.5L34.5105 12.398L34.4893 12.5L34.5105 12.602L35 12.5ZM35.3125 14L34.823 14.102L34.852 14.2412L34.95 14.3444L35.3125 14ZM36.5 15.25L36.1375 15.5944L36.1979 15.658L36.2764 15.6972L36.5 15.25ZM38 16L37.7764 16.4472L37.882 16.5H38V16ZM40 16V16.5H40.2326L40.3825 16.3221L40 16ZM41 14.8125L41.3825 15.1346L41.4529 15.0509L41.482 14.9455L41 14.8125ZM41.5 13L41.982 13.133L42 13.0677V13H41.5ZM41.5 11.5H42V11.3486L41.916 11.2226L41.5 11.5ZM40.5 10L40.916 9.72265L40.8606 9.63944L40.7774 9.58397L40.5 10ZM39 9L39.2774 8.58397L39.1514 8.5H39V9ZM37.5 9V8.5H37.382L37.2764 8.55279L37.5 9ZM44.5 15.6875L44.1707 15.3112L44.1328 15.3444L44.1023 15.3845L44.5 15.6875ZM43.5 17L43.1023 16.697L43 16.8312V17H43.5ZM43.5 18.5H43V18.7071L43.1464 18.8536L43.5 18.5ZM45 20L44.6464 20.3536L44.7299 20.437L44.8419 20.4743L45 20ZM46.5 20.5L46.3419 20.9743L46.48 21.0204L46.6213 20.9851L46.5 20.5ZM48.5 20L48.6213 20.4851L48.8444 20.4293L48.9472 20.2236L48.5 20ZM49 19L49.4472 19.2236L49.5 19.118V19H49ZM49 17H49.5V16.908L49.4672 16.822L49 17ZM48.5 15.6875L48.9672 15.5095L48.9044 15.3446L48.7519 15.2556L48.5 15.6875ZM47 14.8125L47.2519 14.3806L47.1352 14.3125H47V14.8125ZM45.5 14.8125V14.3125H45.3121L45.1707 14.4362L45.5 14.8125ZM21.8626 0.019238L18.3626 1.01924L18.6374 1.98076L22.1374 0.980762L21.8626 0.019238ZM18.3684 1.01762L12.8684 2.51762L13.1316 3.48238L18.6316 1.98238L18.3684 1.01762ZM12.7764 2.55279L8.77639 4.55279L9.22361 5.44721L13.2236 3.44721L12.7764 2.55279ZM8.70938 4.59313L5.20938 7.09313L5.79062 7.90687L9.29062 5.40687L8.70938 4.59313ZM5.11589 7.17991L2.61589 10.1799L3.38411 10.8201L5.88411 7.82009L5.11589 7.17991ZM2.53184 10.3244L1.03184 14.3244L1.96816 14.6756L3.46816 10.6756L2.53184 10.3244ZM1.01493 14.3787L0.0149287 18.3787L0.985071 18.6213L1.98507 14.6213L1.01493 14.3787ZM0 18.5V22.5H1V18.5H0ZM0.019238 22.6374L1.01924 26.1374L1.98076 25.8626L0.980762 22.3626L0.019238 22.6374ZM1.05279 26.2236L3.05279 30.2236L3.94721 29.7764L1.94721 25.7764L1.05279 26.2236ZM3.10957 30.3123L5.10957 32.8123L5.89043 32.1877L3.89043 29.6877L3.10957 30.3123ZM5.1746 32.8796L8.6746 35.8796L9.3254 35.1204L5.8254 32.1204L5.1746 32.8796ZM8.64645 35.8536L11.1464 38.3536L11.8536 37.6464L9.35355 35.1464L8.64645 35.8536ZM11.2764 38.4472L14.2764 39.9472L14.7236 39.0528L11.7236 37.5528L11.2764 38.4472ZM14.0149 39.3787L13.5149 41.3787L14.4851 41.6213L14.9851 39.6213L14.0149 39.3787ZM13.8419 41.0257L12.3419 41.5257L12.6581 42.4743L14.1581 41.9743L13.8419 41.0257ZM12.6213 41.5149L10.6213 41.0149L10.3787 41.9851L12.3787 42.4851L12.6213 41.5149ZM10.7774 41.084L9.27735 40.084L8.72265 40.916L10.2226 41.916L10.7774 41.084ZM9.35355 40.1464L8.35355 39.1464L7.64645 39.8536L8.64645 40.8536L9.35355 40.1464ZM8.41603 39.2226L7.41603 37.7226L6.58397 38.2774L7.58397 39.7774L8.41603 39.2226ZM7.48507 37.8787L6.98507 35.8787L6.01493 36.1213L6.51493 38.1213L7.48507 37.8787ZM6.72361 35.5528L5.72361 35.0528L5.27639 35.9472L6.27639 36.4472L6.72361 35.5528ZM3 39.5V43H4V39.5H3ZM3.05279 43.2236L4.05279 45.2236L4.94721 44.7764L3.94721 42.7764L3.05279 43.2236ZM4.14645 45.3536L5.14645 46.3536L5.85355 45.6464L4.85355 44.6464L4.14645 45.3536ZM5.22265 46.416L6.72265 47.416L7.27735 46.584L5.77735 45.584L5.22265 46.416ZM6.77639 47.4472L8.77639 48.4472L9.22361 47.5528L7.22361 46.5528L6.77639 47.4472ZM14.2774 48.416L15.7774 47.416L15.2226 46.584L13.7226 47.584L14.2774 48.416ZM16 47V44H15V47H16ZM15.5 44.5H17V43.5H15.5V44.5ZM16.5149 44.1213L17.0149 46.1213L17.9851 45.8787L17.4851 43.8787L16.5149 44.1213ZM17.0528 45.7764L16.5528 46.7764L17.4472 47.2236L17.9472 46.2236L17.0528 45.7764ZM16.7226 46.584L15.2226 47.584L15.7774 48.416L17.2774 47.416L16.7226 46.584ZM15.1464 48.3536L17.1464 50.3536L17.8536 49.6464L15.8536 47.6464L15.1464 48.3536ZM17.5 50.5H22V49.5H17.5V50.5ZM22.1857 50.4642L24.6857 49.4642L24.3143 48.5358L21.8143 49.5358L22.1857 50.4642ZM31.3915 0.988094L35.8915 1.98809L36.1085 1.01191L31.6085 0.0119065L31.3915 0.988094ZM35.7991 1.95785L40.2991 3.9326L40.7009 3.01689L36.2009 1.04215L35.7991 1.95785ZM40.2782 3.92286L44.2782 5.90266L44.7218 5.00643L40.7218 3.02663L40.2782 3.92286ZM44.2113 5.8628L47.7113 8.33755L48.2887 7.52104L44.7887 5.04629L44.2113 5.8628ZM47.6175 8.2513L50.1175 11.221L50.8825 10.577L48.3825 7.60728L47.6175 8.2513ZM50.0324 11.0761L51.5324 15.0357L52.4676 14.6815L50.9676 10.7219L50.0324 11.0761ZM51.5152 14.981L52.5152 18.9406L53.4848 18.6958L52.4848 14.7362L51.5152 14.981ZM52.5 18.8182V22.7778H53.5V18.8182H52.5ZM52.5196 22.6391L51.5196 26.1038L52.4804 26.3811L53.4804 22.9164L52.5196 22.6391ZM51.5537 26.017L49.5537 29.9766L50.4463 30.4274L52.4463 26.4679L51.5537 26.017ZM49.6111 29.8877L47.6111 32.3625L48.3889 32.991L50.3889 30.5163L49.6111 29.8877ZM47.6765 32.2955L44.1765 35.2652L44.8235 36.0277L48.3235 33.058L47.6765 32.2955ZM44.1482 35.2911L41.6482 37.7659L42.3518 38.4766L44.8518 36.0018L44.1482 35.2911ZM41.7782 37.6731L38.7782 39.1579L39.2218 40.0542L42.2218 38.5693L41.7782 37.6731ZM38.5152 39.7285L39.0152 41.7083L39.9848 41.4634L39.4848 39.4836L38.5152 39.7285ZM39.3433 42.0607L40.8433 42.5556L41.1567 41.606L39.6567 41.111L39.3433 42.0607ZM41.1201 42.5662L43.1201 42.0712L42.8799 41.1005L40.8799 41.5954L41.1201 42.5662ZM43.2754 42.0032L44.7754 41.0133L44.2246 40.1786L42.7246 41.1685L43.2754 42.0032ZM44.8518 40.9513L45.8518 39.9614L45.1482 39.2507L44.1482 40.2406L44.8518 40.9513ZM45.9147 39.8854L46.9147 38.4005L46.0853 37.8419L45.0853 39.3268L45.9147 39.8854ZM46.9848 38.2436L47.4848 36.2638L46.5152 36.019L46.0152 37.9988L46.9848 38.2436ZM47.2218 36.5895L48.2218 36.0946L47.7782 35.1984L46.7782 35.6933L47.2218 36.5895ZM49.5 39.6061V43.0707H50.5V39.6061H49.5ZM49.5537 42.8453L48.5537 44.8251L49.4463 45.2759L50.4463 43.2961L49.5537 42.8453ZM48.6482 44.6952L47.6482 45.6851L48.3518 46.3957L49.3518 45.4058L48.6482 44.6952ZM47.7246 45.6231L46.2246 46.613L46.7754 47.4476L48.2754 46.4577L47.7246 45.6231ZM46.2782 46.5822L44.2782 47.5721L44.7218 48.4683L46.7218 47.4784L46.2782 46.5822ZM39.7754 47.6029L38.2754 46.613L37.7246 47.4476L39.2246 48.4375L39.7754 47.6029ZM38.5 47.0303V44.0606H37.5V47.0303H38.5ZM38 43.5606H36.5V44.5606H38V43.5606ZM36.0152 43.9382L35.5152 45.918L36.4848 46.1628L36.9848 44.183L36.0152 43.9382ZM35.5537 46.2658L36.0537 47.2557L36.9463 46.8049L36.4463 45.815L35.5537 46.2658ZM36.2246 47.4476L37.7246 48.4375L38.2754 47.6029L36.7754 46.613L36.2246 47.4476ZM37.6482 47.6649L35.6482 49.6447L36.3518 50.3553L38.3518 48.3755L37.6482 47.6649ZM36 49.5H31.5V50.5H36V49.5ZM31.6841 49.5351L29.1841 48.5452L28.8159 49.475L31.3159 50.4649L31.6841 49.5351ZM5.05279 35.2764L3.05279 39.2764L3.94721 39.7236L5.94721 35.7236L5.05279 35.2764ZM9 48.5H14V47.5H9V48.5ZM47.5537 35.8719L49.5537 39.8315L50.4463 39.3806L48.4463 35.421L47.5537 35.8719ZM44.5 47.5202H39.5V48.5202H44.5V47.5202ZM24.9069 49.2906L27.1565 46.1411L26.3428 45.5599L24.0931 48.7094L24.9069 49.2906ZM26.3424 46.1406L28.5927 49.3002L29.4073 48.72L27.1569 45.5604L26.3424 46.1406ZM27.1569 45.5604L26.9073 45.2099L26.0927 45.7901L26.3424 46.1406L27.1569 45.5604ZM27.1565 46.1411L27.4069 45.7906L26.5931 45.2094L26.3428 45.5599L27.1565 46.1411ZM3.14645 10.3536L4.64645 11.8536L5.35355 11.1464L3.85355 9.64645L3.14645 10.3536ZM4.84189 11.9743L6.34189 12.4743L6.65811 11.5257L5.15811 11.0257L4.84189 11.9743ZM6.62127 12.4851L8.62127 11.9851L8.37873 11.0149L6.37873 11.5149L6.62127 12.4851ZM8.77735 11.916L10.2774 10.916L9.72265 10.084L8.22265 11.084L8.77735 11.916ZM10.4851 10.6213L10.9851 8.62127L10.0149 8.37873L9.51493 10.3787L10.4851 10.6213ZM11 8.5V7H10V8.5H11ZM10.9743 6.84189L10.4743 5.34189L9.52566 5.65811L10.0257 7.15811L10.9743 6.84189ZM10.3536 5.14645L9.85355 4.64645L9.14645 5.35355L9.64645 5.85355L10.3536 5.14645ZM9.24275 4.57125L6.74275 6.07125L7.25725 6.92875L9.75725 5.42875L9.24275 4.57125ZM6.7 6.1L4.7 7.6L5.3 8.4L7.3 6.9L6.7 6.1ZM4.6 7.7L3.1 9.7L3.9 10.3L5.4 8.3L4.6 7.7ZM10.584 4.27735L11.584 5.77735L12.416 5.22265L11.416 3.72265L10.584 4.27735ZM11.7226 5.91603L13.2226 6.91603L13.7774 6.08397L12.2774 5.08397L11.7226 5.91603ZM13.6213 6.98507L15.6213 6.48507L15.3787 5.51493L13.3787 6.01493L13.6213 6.98507ZM15.8536 6.35355L17.3536 4.85355L16.6464 4.14645L15.1464 5.64645L15.8536 6.35355ZM16.8787 1.51493L12.8787 2.51493L13.1213 3.48507L17.1213 2.48507L16.8787 1.51493ZM12.7764 2.55279L10.7764 3.55279L11.2236 4.44721L13.2236 3.44721L12.7764 2.55279ZM20.0149 0.878732L19.5149 2.87873L20.4851 3.12127L20.9851 1.12127L20.0149 0.878732ZM19.5 3V4.5H20.5V3H19.5ZM19.7226 4.91603L21.2226 5.91603L21.7774 5.08397L20.2774 4.08397L19.7226 4.91603ZM21.5 6H23.5V5H21.5V6ZM23.7774 5.91603L25.2774 4.91603L24.7226 4.08397L23.2226 5.08397L23.7774 5.91603ZM25.4743 4.65811L25.9743 3.15811L25.0257 2.84189L24.5257 4.34189L25.4743 4.65811ZM25.9851 2.87873L25.4851 0.878732L24.5149 1.12127L25.0149 3.12127L25.9851 2.87873ZM25.3536 0.646447L24.8536 0.146447L24.1464 0.853553L24.6464 1.35355L25.3536 0.646447ZM24.5 0H22V1H24.5V0ZM21.8419 0.0256584L20.3419 0.525658L20.6581 1.47434L22.1581 0.974342L21.8419 0.0256584ZM8.06985 14.5576L7.06985 16.2451L7.93015 16.7549L8.93015 15.0674L8.06985 14.5576ZM7 16.5V18H8V16.5H7ZM7.02566 18.1581L7.52566 19.6581L8.47434 19.3419L7.97434 17.8419L7.02566 18.1581ZM7.77639 19.9472L8.77639 20.4472L9.22361 19.5528L8.22361 19.0528L7.77639 19.9472ZM9.15811 20.4743L10.6581 19.9743L10.3419 19.0257L8.84189 19.5257L9.15811 20.4743ZM10.9743 19.6581L11.4743 18.1581L10.5257 17.8419L10.0257 19.3419L10.9743 19.6581ZM11.5 18V16.5H10.5V18H11.5ZM11.3904 16.1877L10.3904 14.9377L9.60957 15.5623L10.6096 16.8123L11.3904 16.1877ZM10.14 14.77L8.64 14.3325L8.36 15.2925L9.86 15.73L10.14 14.77ZM15.7226 8.08397L14.2226 9.08397L14.7774 9.91603L16.2774 8.91603L15.7226 8.08397ZM14.0149 9.37873L13.5149 11.3787L14.4851 11.6213L14.9851 9.62127L14.0149 9.37873ZM13.5 11.5V13.5H14.5V11.5H13.5ZM13.5328 13.678L14.0328 14.9905L14.9672 14.6345L14.4672 13.322L13.5328 13.678ZM14.1776 15.1946L16.1776 16.8821L16.8224 16.1179L14.8224 14.4304L14.1776 15.1946ZM16.5 17H19V16H16.5V17ZM19.2774 16.916L20.7774 15.916L20.2226 15.084L18.7226 16.084L19.2774 16.916ZM20.916 15.7774L21.916 14.2774L21.084 13.7226L20.084 15.2226L20.916 15.7774ZM22 14V12H21V14H22ZM21.9851 11.8787L21.4851 9.87873L20.5149 10.1213L21.0149 12.1213L21.9851 11.8787ZM21.416 9.72265L20.416 8.22265L19.584 8.77735L20.584 10.2774L21.416 9.72265ZM20.1581 8.02566L18.6581 7.52566L18.3419 8.47434L19.8419 8.97434L20.1581 8.02566ZM18.5 7.5H17V8.5H18.5V7.5ZM16.7764 7.55279L15.7764 8.05279L16.2236 8.94721L17.2236 8.44721L16.7764 7.55279ZM24.3419 13.0257L22.8419 13.5257L23.1581 14.4743L24.6581 13.9743L24.3419 13.0257ZM22.6847 16.0756L23.6847 16.8881L24.3153 16.1119L23.3153 15.2994L22.6847 16.0756ZM24.2236 16.9472L25.2236 16.4472L24.7764 15.5528L23.7764 16.0528L24.2236 16.9472ZM25.4608 16.194L25.9608 15.0065L25.0392 14.6185L24.5392 15.806L25.4608 16.194ZM26 14.8125V14H25V14.8125H26ZM25.7236 13.5528L24.7236 13.0528L24.2764 13.9472L25.2764 14.4472L25.7236 13.5528ZM27.85 6.7L27.1 7.7L27.9 8.3L28.65 7.3L27.85 6.7ZM27 8V9.5H28V8H27ZM27.1 9.8L27.85 10.8L28.65 10.2L27.9 9.2L27.1 9.8ZM27.9726 10.916L28.7226 11.416L29.2774 10.584L28.5274 10.084L27.9726 10.916ZM29 11.5H30.5V10.5H29V11.5ZM30.8536 11.3536L31.8536 10.3536L31.1464 9.64645L30.1464 10.6464L30.8536 11.3536ZM32 10V8.5H31V10H32ZM31.9472 8.27639L31.4472 7.27639L30.5528 7.72361L31.0528 8.72361L31.9472 8.27639ZM31.3536 7.14645L30.3536 6.14645L29.6464 6.85355L30.6464 7.85355L31.3536 7.14645ZM30 6H29V7H30V6ZM28.7226 6.08397L27.9726 6.58397L28.5274 7.41603L29.2774 6.91603L28.7226 6.08397ZM29.5257 0.341886L29.0257 1.84189L29.9743 2.15811L30.4743 0.658114L29.5257 0.341886ZM29 2V4H30V2H29ZM29.2764 4.44721L30.2764 4.94721L30.7236 4.05279L29.7236 3.55279L29.2764 4.44721ZM30.2226 4.91603L31.7226 5.91603L32.2774 5.08397L30.7774 4.08397L30.2226 4.91603ZM38.5 3.5V2.5H37.5V3.5H38.5ZM38.1857 2.03576L35.6857 1.03576L35.3143 1.96424L37.8143 2.96424L38.1857 2.03576ZM35.6213 1.01493L31.6213 0.0149287L31.3787 0.985071L35.3787 1.98507L35.6213 1.01493ZM31.5 0H30V1H31.5V0ZM39.5 3.5V4H40.5V3.5H39.5ZM39.584 4.27735L40.584 5.77735L41.416 5.22265L40.416 3.72265L39.584 4.27735ZM40.8419 5.97434L42.3419 6.47434L42.6581 5.52566L41.1581 5.02566L40.8419 5.97434ZM42.6581 6.47434L44.1581 5.97434L43.8419 5.02566L42.3419 5.52566L42.6581 6.47434ZM46 7.5V9.5H47V7.5H46ZM46.084 9.77735L47.084 11.2774L47.916 10.7226L46.916 9.22265L46.084 9.77735ZM47.5 11.5H49V10.5H47.5V11.5ZM49.2236 11.4472L50.2236 10.9472L49.7764 10.0528L48.7764 10.5528L49.2236 11.4472ZM50.3536 10.1464L48.8536 8.64645L48.1464 9.35355L49.6464 10.8536L50.3536 10.1464ZM48.8 8.6L46.8 7.1L46.2 7.9L48.2 9.4L48.8 8.6ZM36.108 9.18965L34.9205 10.6896L35.7045 11.3104L36.892 9.81035L36.108 9.18965ZM34.823 10.898L34.5105 12.398L35.4895 12.602L35.802 11.102L34.823 10.898ZM34.5105 12.602L34.823 14.102L35.802 13.898L35.4895 12.398L34.5105 12.602ZM34.95 14.3444L36.1375 15.5944L36.8625 14.9056L35.675 13.6556L34.95 14.3444ZM36.2764 15.6972L37.7764 16.4472L38.2236 15.5528L36.7236 14.8028L36.2764 15.6972ZM38 16.5H40V15.5H38V16.5ZM40.3825 16.3221L41.3825 15.1346L40.6175 14.4904L39.6175 15.6779L40.3825 16.3221ZM41.482 14.9455L41.982 13.133L41.018 12.867L40.518 14.6795L41.482 14.9455ZM42 13V11.5H41V13H42ZM41.916 11.2226L40.916 9.72265L40.084 10.2774L41.084 11.7774L41.916 11.2226ZM40.7774 9.58397L39.2774 8.58397L38.7226 9.41603L40.2226 10.416L40.7774 9.58397ZM39 8.5H37.5V9.5H39V8.5ZM37.2764 8.55279L36.2764 9.05279L36.7236 9.94721L37.7236 9.44721L37.2764 8.55279ZM44.1023 15.3845L43.1023 16.697L43.8977 17.303L44.8977 15.9905L44.1023 15.3845ZM43 17V18.5H44V17H43ZM43.1464 18.8536L44.6464 20.3536L45.3536 19.6464L43.8536 18.1464L43.1464 18.8536ZM44.8419 20.4743L46.3419 20.9743L46.6581 20.0257L45.1581 19.5257L44.8419 20.4743ZM46.6213 20.9851L48.6213 20.4851L48.3787 19.5149L46.3787 20.0149L46.6213 20.9851ZM48.9472 20.2236L49.4472 19.2236L48.5528 18.7764L48.0528 19.7764L48.9472 20.2236ZM49.5 19V17H48.5V19H49.5ZM49.4672 16.822L48.9672 15.5095L48.0328 15.8655L48.5328 17.178L49.4672 16.822ZM48.7519 15.2556L47.2519 14.3806L46.7481 15.2444L48.2481 16.1194L48.7519 15.2556ZM47 14.3125H45.5V15.3125H47V14.3125ZM45.1707 14.4362L44.1707 15.3112L44.8293 16.0638L45.8293 15.1888L45.1707 14.4362ZM31.5 0H22V1H31.5V0ZM17.5 4.5V2H16.5V4.5H17.5ZM22.5 14V15.6875H23.5V14H22.5ZM32 6H36V5H32V6ZM36.3536 5.85355L38.3536 3.85355L37.6464 3.14645L35.6464 5.14645L36.3536 5.85355ZM44.2236 5.05279L40.2236 3.05279L39.7764 3.94721L43.7764 5.94721L44.2236 5.05279Z" fill="black"/>
<path d="M27 32.5C27 37.1944 23.1944 41 18.5 41C13.8056 41 10 37.1944 10 32.5C10 27.8056 13.8056 24 18.5 24C23.1944 24 27 27.8056 27 32.5Z" fill="black"/>
<path d="M44 32.5C44 37.1944 40.1944 41 35.5 41C30.8056 41 27 37.1944 27 32.5C27 27.8056 30.8056 24 35.5 24C40.1944 24 44 27.8056 44 32.5Z" fill="black"/>
<path d="M24 32.5C24 35.5376 21.5376 38 18.5 38C15.4624 38 13 35.5376 13 32.5C13 29.4624 15.4624 27 18.5 27C21.5376 27 24 29.4624 24 32.5Z" fill="white"/>
<path d="M41 32.5C41 35.5376 38.5376 38 35.5 38C32.4624 38 30 35.5376 30 32.5C30 29.4624 32.4624 27 35.5 27C38.5376 27 41 29.4624 41 32.5Z" fill="white"/>
<path d="M21 32C21 33.1046 20.1046 34 19 34C17.8954 34 17 33.1046 17 32C17 30.8954 17.8954 30 19 30C20.1046 30 21 30.8954 21 32Z" fill="black"/>
<path d="M37 32C37 33.1046 36.1046 34 35 34C33.8954 34 33 33.1046 33 32C33 30.8954 33.8954 30 35 30C36.1046 30 37 30.8954 37 32Z" fill="black"/>
</svg>
