<?xml version="1.0" standalone="no"?>
<!DOCTYPE svg PUBLIC "-//W3C//DTD SVG 20010904//EN"
 "http://www.w3.org/TR/2001/REC-SVG-20010904/DTD/svg10.dtd">
<svg version="1.0" xmlns="http://www.w3.org/2000/svg"
 width="864.000000pt" height="864.000000pt" viewBox="0 0 864.000000 864.000000"
 preserveAspectRatio="xMidYMid meet">
<metadata>
Created by potrace 1.14, written by Peter Selinger 2001-2017
</metadata>
<g transform="translate(0.000000,864.000000) scale(0.100000,-0.100000)"
fill="#000000" stroke="none">
<path d="M3275 8334 c-121 -36 -447 -127 -725 -203 l-505 -138 -322 -161 -321
-161 -284 -203 c-302 -216 -347 -255 -448 -388 -35 -47 -108 -137 -162 -201
l-97 -116 -125 -334 c-113 -301 -133 -366 -206 -656 l-80 -323 0 -330 0 -331
84 -292 83 -292 162 -323 162 -323 165 -207 166 -207 266 -228 c149 -127 365
-325 487 -447 l220 -218 213 -106 c156 -78 212 -111 212 -124 0 -9 -11 -57
-23 -107 l-23 -90 -89 -31 -89 -31 -140 35 c-137 35 -144 37 -256 113 -141 94
-244 198 -337 339 -69 103 -70 108 -112 276 l-42 170 -125 62 c-68 34 -129 62
-134 62 -6 0 -91 -162 -190 -360 l-180 -360 0 -300 0 -300 89 -178 c86 -171
93 -180 178 -263 113 -111 283 -224 501 -333 l172 -86 423 0 422 0 54 36 54
36 196 -196 196 -196 385 0 385 0 218 87 218 87 150 211 c83 115 154 210 158
210 5 0 76 -95 159 -211 l151 -212 219 -86 218 -86 385 0 384 0 195 195 195
195 52 -35 52 -35 430 0 429 0 161 80 c206 102 392 224 504 330 87 82 91 88
178 262 l89 178 0 295 0 296 -175 347 c-96 191 -178 353 -183 360 -7 11 -38
-1 -140 -52 -125 -63 -132 -67 -141 -103 -6 -21 -25 -96 -42 -168 -31 -125
-36 -135 -110 -245 -95 -143 -198 -243 -340 -333 -100 -63 -116 -70 -247 -102
l-140 -34 -78 26 c-44 14 -84 31 -90 37 -10 10 -54 160 -54 185 0 16 65 54
254 148 l171 85 210 208 c127 126 319 300 486 442 l277 234 164 204 165 205
162 319 163 318 84 291 84 291 0 329 0 330 -85 331 c-75 292 -98 366 -199 633
-63 166 -121 313 -128 326 -7 13 -103 130 -213 260 l-199 237 -283 200 c-278
197 -286 201 -595 356 -172 86 -484 232 -693 324 l-380 167 -368 81 -367 82
-778 -1 -777 -1 -220 -64z m-160 -4269 c435 -76 751 -479 722 -919 -28 -407
-326 -742 -722 -811 -479 -83 -937 235 -1020 710 -105 604 416 1125 1020 1020z
m2720 0 c414 -72 725 -443 725 -865 0 -421 -312 -793 -725 -865 -479 -83 -937
236 -1020 710 -105 604 416 1125 1020 1020z m-3149 -2900 l28 -114 -28 -58
c-21 -44 -39 -66 -77 -91 l-49 -32 0 205 0 205 49 0 49 0 28 -115z m3314 -96
c0 -157 -3 -199 -12 -193 -67 39 -96 67 -118 113 l-24 52 28 114 28 115 49 0
49 0 0 -201z"/>
<path d="M2964 3591 c-49 -12 -134 -63 -160 -94 -14 -17 -37 -53 -52 -81 -22
-43 -26 -64 -26 -136 -1 -78 2 -90 33 -148 38 -70 70 -100 145 -140 69 -36
197 -38 266 -4 71 34 113 75 151 144 31 58 34 70 34 148 0 78 -3 90 -34 148
-57 105 -144 160 -260 167 -36 2 -80 1 -97 -4z"/>
<path d="M5524 3591 c-49 -12 -134 -63 -160 -94 -14 -17 -37 -53 -52 -81 -23
-44 -27 -63 -27 -136 0 -78 3 -90 34 -148 38 -70 70 -101 145 -140 43 -22 64
-26 136 -26 72 0 93 4 136 26 75 40 107 70 145 140 31 58 34 70 34 148 0 78
-3 90 -34 148 -57 104 -144 160 -260 167 -36 2 -80 1 -97 -4z"/>
</g>
</svg>
