    <svg
        version="1.0"
        xmlns="http://www.w3.org/2000/svg"
        width="150"
        height="150"
        aria-label="Octopus"
        fill="fill-current"
        viewBox="0 0 500 500"
    >
        <g>
            <path
                style="fill: #4ea6cc;"
                d="M39.4,278.24c-12.51-2.39-22.24-13.55-22.24-13.55-4.62-4.84-7.25-9.59-8.52-12.18-3.08-6.28-4.54-12.82-5.02-19.45-.89-12.25,1.52-19.13,2.37-21.85,.86-2.72,.14-5.93,0-6.6-.14-.66,3.58-2.43,5.59-2.34,2.01,.09,4.06,1.12,4.36,3.6,.52,4.29-1.17,9.92-1.78,15.95-1.06,10.49,2.48,15.76,4.68,19.83,2.3,4.26,7.4,9.6,17.66,15.57,0,0,1.52,.85,2.02-.2,.5-1.06-2.57-4.69-3.8-6.82-3.46-5.97-9.11-17.42-9.63-27.12-.52-13.2,1.84-20.3,9.7-29.43,7.99-9.27,18.79-12.38,23.35-12.93,3.94-.48,11.7-.3,17.46,1.12,5.74,1.42,12.62,3.13,21.16,11.92,8.22,8.46,10.65,17.7,9.91,29.18s-9.16,27.11-11.31,30.14-1.68,4.53-1.41,4.58c2.2,.45,4.33-.98,4.71-1.23,5.84-3.87,14.67-10.62,17.75-22.46,1.62-6.23,2.73-12.95,1.78-17.91-.42-2.2-.63-5.08-.63-5.76,0-2.2,.96-3.79,2.3-4.61,2.16-1.68,5.27-1.24,6.44-.94,1.22,.16,1.02,1.79,.94,2.57-.07,.66-.99,2.88-.21,4.71,5.73,13.36,2.15,28.43,.68,32.94-2.21,6.79-5.25,12.6-12.36,19.79-6.44,6.52-14.67,10.88-22.15,11.94l-1.28,.2c-.31,.09-.42,.74-.17,.94,.71,.58,1.96,.97,3.38,1.48,1.62,.59,4.73,1.15,7.97,.94,5.46-.35,7.42-1.51,11.59-4.96,1.01-.84,6.19-4.44,6.49-4.66,3.12-2.27,6.99-.42,7.61,0,.7,.47,2.41,1.24,2.41,2.08,0,.37-.03,.38-1.22,.7-.42,.11-4.98,2.99-9.98,8.17-6.21,6.42-8.31,8.31-13.47,10.33-6.15,2.28-11.59,1.68-15.64,1.33-2.79-.24-9.16-2.17-12.92-4.05-1.95-.98-5.77-2.62-9.84-5.85-.93-.73-1.59-.87-2.28-.84-1.02,.05-1.6,.22-3.38,1.66-.98,.79-4.72,4.8-7.47,6.14-5.31,2.58-13.13,3.14-21.92,1.12-7.68-1.77-17.47-8.81-19.51-10.2-2.84-1.93-7.3-5.97-10.37-7.46-.96-.47-1.62-.18-2.78-.37-.62-.1-.59-2.59,.37-3.69,.95-1.11,2.69-2.23,5.03-2.12,2.27,.1,4.6,.87,8.24,2.62,3.17,1.53,5.95,3.99,8.94,5.27,8.62,3.7,16.74,3.08,16.85,2.96,.04-.04-.03-.12-.44-.2Z"
            />
            <path
                style="fill: #1f4e63;"
                d="M35.62,195.48c-2.33,1.92-3.12,4.8-1.78,6.43s4.32,1.4,6.65-.52c2.33-1.92,3.12-4.8,1.78-6.43s-4.32-1.4-6.65,.52Z"
            />
            <path
                style="fill: #1f4e63;"
                d="M48.64,188.58c-.69-1.19-2.61-1.37-4.29-.4-1.68,.97-2.48,2.72-1.8,3.91s2.61,1.37,4.29,.4,2.48-2.72,1.8-3.91Z"
            />
            <path
                style="fill: #1f4e63;"
                d="M33.94,204.09c-.79-.42-1.87,.08-2.41,1.11-.54,1.03-.35,2.2,.44,2.62,.79,.42,1.87-.08,2.42-1.11,.54-1.03,.35-2.2-.44-2.62Z"
            />
            <path
                style="fill: #1f4e63;"
                d="M101.74,219.47c2.12-.92,2.78-4.12,1.47-7.15s-4.1-4.74-6.22-3.82c-2.12,.92-2.78,4.12-1.47,7.15s4.1,4.74,6.22,3.82Z"
            />
            <path
                style="fill: #1f4e63;"
                d="M96.26,226.26c1.31-.73,1.54-2.83,.51-4.68-1.03-1.85-2.93-2.77-4.25-2.03-1.31,.73-1.54,2.83-.51,4.68,1.03,1.85,2.93,2.77,4.25,2.03Z"
            />
            <path
                style="fill: #1f4e63;"
                d="M92.73,210.21c.69-.57,.64-1.76-.11-2.66-.74-.9-1.91-1.16-2.59-.59-.69,.57-.64,1.76,.11,2.66,.74,.9,1.91,1.16,2.59,.59Z"
            />
            <g>
                <path
                    style="fill: #1e232d;"
                    d="M78.02,248.29c-1.06-.44-2.33,.19-2.84,1.41-.5,1.22-.05,2.56,1.01,3,1.06,.44,2.33-.19,2.84-1.41,.5-1.22,.05-2.56-1.01-3Z"
                />
                <path
                    style="fill: #1e232d;"
                    d="M53.91,248.29c-1.06,.44-1.51,1.78-1.01,3,.5,1.22,1.77,1.85,2.84,1.41,1.06-.44,1.51-1.78,1.01-3-.5-1.22-1.77-1.85-2.84-1.41Z"
                />
                <path
                    style="fill: #fff;"
                    d="M79.88,243.8c-3.22-1.33-7.08,.59-8.61,4.28-1.53,3.7-.15,7.79,3.07,9.12s7.08-.59,8.61-4.28c1.53-3.7,.15-7.79-3.07-9.12Zm-.85,7.5c-.5,1.22-1.77,1.85-2.84,1.41-1.06-.44-1.51-1.78-1.01-3,.5-1.22,1.77-1.85,2.84-1.41,1.06,.44,1.51,1.78,1.01,3Z"
                />
                <path
                    style="fill: #fff;"
                    d="M52.05,243.8c-3.22,1.33-4.6,5.42-3.07,9.12s5.39,5.62,8.61,4.28c3.22-1.33,4.6-5.42,3.07-9.12s-5.39-5.62-8.61-4.28Zm3.69,8.91c-1.06,.44-2.33-.19-2.84-1.41-.5-1.22-.05-2.56,1.01-3,1.06-.44,2.33,.19,2.84,1.41,.5,1.22,.05,2.56-1.01,3Z"
                />
            </g>
            <path
                style="fill: #1f4e63;"
                d="M131.72,233.41c-.08,.9-.19,1.8-.32,2.69,0,.07-.01,.14-.02,.2,.04,.01,.08,.02,.13,.03,.81,.09,1.61-1.15,1.79-2.77,.18-1.62-.33-3-1.14-3.09-.09,0-.17,0-.26,.02,0,.1-.01,.2-.02,.3-.03,.86-.08,1.72-.15,2.58v.04Z"
            />
            <path
                style="fill: #1f4e63;"
                d="M122.75,258.81c-.6,.85-1.22,1.69-1.87,2.5,.07,.14,.17,.27,.3,.35,.75,.51,2.18-.3,3.19-1.8s1.22-3.12,.47-3.63c-.1-.07-.21-.11-.33-.13-.54,.89-1.11,1.77-1.71,2.63l-.05,.08Z"
            />
            <path
                style="fill: #1f4e63;"
                d="M101.02,276.14c-.93,.33-1.87,.63-2.82,.9-.09,.02-.17,.06-.26,.08-.08,.24-.09,.47,0,.69,.34,.92,2.11,1.12,3.95,.45,1.84-.67,3.07-1.97,2.73-2.89-.07-.19-.21-.35-.39-.48-.05,.02-.11,.04-.16,.06-.79,.34-1.59,.65-2.39,.95-.21,.08-.43,.17-.64,.25Z"
            />
            <path
                style="fill: #1f4e63;"
                d="M113.53,268.81c-.7,.63-1.42,1.24-2.15,1.83h-.02c.02,.25,.09,.45,.23,.6,.6,.65,2.13,.2,3.42-1,1.29-1.2,1.85-2.69,1.25-3.34-.12-.13-.28-.21-.47-.26h0c-.67,.68-1.36,1.35-2.07,1.99-.07,.06-.13,.12-.2,.18Z"
            />
            <path
                style="fill: #1f4e63;"
                d="M128.86,213.19c.23,.64,.45,1.28,.66,1.92,.02,.07,.05,.14,.07,.21,.06,0,.12-.01,.18-.03,.62-.23,.74-1.42,.28-2.65-.46-1.23-1.34-2.05-1.95-1.82-.05,.02-.1,.05-.14,.08,.02,.06,.04,.11,.07,.17,.23,.54,.44,1.08,.64,1.62,.06,.17,.13,.34,.2,.51Z"
            />
            <path
                style="fill: #1f4e63;"
                d="M130.41,243.26s-.09-.03-.14-.03c-.04,.13-.08,.25-.12,.38-.18,.61-.38,1.21-.59,1.81-.08,.22-.15,.44-.23,.65-.29,.79-.59,1.57-.91,2.35-.1,.23-.2,.46-.3,.68,.08,.07,.18,.13,.28,.16,.83,.28,1.95-.84,2.51-2.5s.34-3.23-.49-3.51Z"
            />
            <path
                style="fill: #1f4e63;"
                d="M1.98,223.41c-.07,.9-.11,1.8-.13,2.71,0,.07,0,.14-.01,.2-.04,0-.09,0-.13,0-.81-.05-1.4-1.4-1.3-3.03,.09-1.63,.83-2.91,1.64-2.86,.09,0,.17,.03,.25,.06-.01,.1-.02,.2-.03,.3-.11,.85-.21,1.71-.28,2.57v.04Z"
            />
            <path
                style="fill: #1f4e63;"
                d="M5.18,249.79c.42,.96,.86,1.9,1.33,2.83-.1,.13-.22,.23-.36,.29-.83,.35-2.07-.73-2.77-2.4s-.58-3.3,.26-3.65c.11-.05,.23-.07,.35-.06,.35,.98,.74,1.95,1.15,2.91l.04,.09Z"
            />
            <path
                style="fill: #1f4e63;"
                d="M22.13,271.43c.78,.6,1.59,1.17,2.41,1.72,.08,.05,.15,.11,.22,.16,0,.25-.06,.48-.2,.65-.6,.77-2.35,.42-3.9-.79-1.55-1.21-2.31-2.82-1.71-3.59,.13-.16,.31-.27,.52-.34,.04,.04,.09,.07,.13,.11,.65,.57,1.31,1.11,1.99,1.64,.18,.14,.35,.29,.54,.43Z"
            />
            <path
                style="fill: #1f4e63;"
                d="M11.79,261.62c.57,.74,1.17,1.48,1.78,2.19h.01c-.06,.24-.17,.43-.34,.55-.71,.53-2.13-.19-3.18-1.61-1.05-1.41-1.33-2.99-.62-3.51,.14-.11,.32-.16,.51-.17h0c.54,.79,1.09,1.57,1.68,2.33,.05,.07,.11,.14,.16,.21Z"
            />
            <path
                style="fill: #1f4e63;"
                d="M4.32,211.83c-.18,.65-.35,1.31-.51,1.96-.02,.07-.04,.14-.06,.21-.06,0-.12,0-.18-.02-.63-.18-.85-1.36-.48-2.62,.37-1.26,1.18-2.14,1.81-1.96,.05,.02,.1,.04,.14,.07-.02,.06-.03,.12-.05,.17-.18,.55-.35,1.11-.52,1.66-.05,.17-.11,.35-.16,.52Z"
            />
            <path
                style="fill: #1f4e63;"
                d="M1.86,233.36s.1,0,.15,0c0,.13,.03,.26,.04,.4,.05,.63,.11,1.26,.18,1.89,.03,.23,.05,.46,.08,.69,.11,.83,.22,1.67,.37,2.49,.04,.25,.1,.49,.14,.73-.1,.05-.2,.08-.31,.09-.87,.09-1.72-1.25-1.9-2.99s.38-3.22,1.25-3.31Z"
            />
            <path
                style="fill: #1f4e63;"
                d="M131.45,222.16c.08,.67,.15,1.35,.2,2.02,0,.07,.02,.15,.02,.22,.06,.01,.12,.01,.18,0,.65-.08,1.05-1.21,.88-2.52-.17-1.31-.83-2.3-1.49-2.21-.05,0-.1,.02-.15,.04,.01,.06,.02,.12,.03,.18,.1,.57,.18,1.15,.26,1.72,.02,.18,.05,.36,.07,.54Z"
            />
            <path
                style="fill: #1f4e63;"
                d="M118.78,285.58c-.63,.64-1.29,1.27-1.96,1.87-.05,.05-.1,.1-.15,.14,.02,.04,.05,.07,.08,.1,.57,.58,1.98,.14,3.14-1,1.17-1.14,1.65-2.53,1.09-3.11-.06-.06-.13-.11-.21-.15-.07,.08-.14,.15-.21,.22-.57,.64-1.15,1.28-1.76,1.89l-.03,.03Z"
            />
            <path
                style="fill: #1f4e63;"
                d="M70.72,287.82c-.83-.53-1.65-1.08-2.45-1.66-.07-.05-.15-.1-.22-.15-.24,.09-.42,.23-.54,.42-.52,.84,.42,2.35,2.09,3.38,1.67,1.03,3.44,1.19,3.96,.36,.11-.18,.15-.38,.14-.61-.05-.03-.1-.06-.15-.09-.75-.41-1.49-.85-2.22-1.3-.2-.12-.4-.23-.59-.35Z"
            />
            <path
                style="fill: #1f4e63;"
                d="M95.81,295.46c-.94-.02-1.88-.07-2.82-.14h-.02c-.15,.18-.23,.38-.23,.59,0,.88,1.42,1.6,3.18,1.62,1.76,.01,3.2-.69,3.2-1.57,0-.18-.06-.35-.17-.51h0c-.96,.04-1.91,.05-2.87,.03-.09,0-.18,0-.26,0Z"
            />
            <path
                style="fill: #1f4e63;"
                d="M127.08,277.07c-.52,.43-1.05,.86-1.58,1.27-.06,.04-.11,.09-.17,.14,.02,.06,.05,.11,.09,.16,.43,.5,1.59,.22,2.59-.63,1-.85,1.47-1.95,1.05-2.45-.04-.04-.08-.07-.12-.11-.04,.04-.09,.08-.14,.12-.43,.39-.87,.78-1.31,1.15-.14,.12-.27,.24-.41,.36Z"
            />
            <path
                style="fill: #1f4e63;"
                d="M111.66,291.92s-.04-.09-.07-.13c-.12,.05-.24,.1-.37,.16-.58,.26-1.16,.51-1.75,.74-.21,.09-.43,.17-.64,.26-.78,.3-1.57,.59-2.37,.85-.24,.08-.48,.15-.72,.22,0,.11,.02,.22,.06,.31,.33,.81,1.91,.92,3.53,.25s2.66-1.86,2.32-2.67Z"
            />
            <path
                style="fill: #1f4e63;"
                d="M82.71,293.05c-.89-.31-1.77-.63-2.65-.99h-.02c-.2,.12-.34,.29-.4,.49-.27,.84,.87,1.96,2.55,2.5,1.68,.54,3.26,.3,3.53-.54,.05-.17,.05-.35,0-.54h0c-.92-.25-1.84-.53-2.75-.84-.08-.03-.17-.06-.25-.09Z"
            />
            <path
                style="fill: #1f4e63;"
                d="M13.56,283.38c.75,.5,1.53,.97,2.31,1.42,.06,.03,.12,.07,.17,.11-.02,.04-.03,.08-.06,.12-.43,.69-1.9,.55-3.28-.31-1.38-.86-2.15-2.12-1.72-2.81,.05-.07,.11-.14,.18-.19,.08,.06,.17,.11,.25,.17,.69,.51,1.4,1.01,2.12,1.48l.04,.03Z"
            />
            <path
                style="fill: #1f4e63;"
                d="M59.81,289.36c.73-.66,1.45-1.34,2.14-2.04,.06-.06,.13-.12,.2-.19,.25,.05,.46,.15,.61,.32,.65,.74-.02,2.39-1.5,3.68-1.48,1.3-3.2,1.75-3.84,1.01-.14-.16-.21-.35-.24-.58,.05-.04,.09-.08,.13-.11,.68-.53,1.33-1.09,1.98-1.65,.17-.15,.35-.29,.52-.45Z"
            />
            <path
                style="fill: #1f4e63;"
                d="M35.11,293.77c.92,.18,1.85,.34,2.79,.47h.02c.11,.21,.15,.43,.1,.63-.18,.86-1.73,1.26-3.45,.9-1.72-.37-2.97-1.36-2.79-2.22,.04-.17,.13-.33,.27-.46h0c.93,.24,1.86,.46,2.8,.64,.09,.02,.17,.03,.26,.05Z"
            />
            <path
                style="fill: #1f4e63;"
                d="M5.55,277.43c.53,.42,1.07,.82,1.62,1.22,.06,.04,.12,.09,.18,.13-.02,.06-.05,.11-.09,.16-.41,.52-1.58,.27-2.61-.55-1.03-.82-1.53-1.9-1.12-2.42,.03-.04,.07-.08,.12-.11,.05,.04,.09,.08,.14,.12,.44,.38,.89,.75,1.34,1.11,.14,.11,.28,.23,.42,.34Z"
            />
            <path
                style="fill: #1f4e63;"
                d="M20.19,288.1s.05-.08,.08-.12c.11,.07,.23,.13,.35,.19,.55,.32,1.1,.63,1.66,.93,.2,.11,.41,.22,.61,.33,.75,.38,1.5,.76,2.27,1.1,.23,.1,.46,.2,.69,.3-.01,.11-.04,.21-.1,.31-.42,.77-2,.71-3.54-.12s-2.44-2.14-2.02-2.9Z"
            />
            <path
                style="fill: #1f4e63;"
                d="M48.14,294.34c.93-.13,1.86-.27,2.79-.45h.02c.17,.16,.27,.35,.3,.56,.1,.88-1.23,1.75-2.98,1.96-1.75,.21-3.25-.34-3.36-1.21-.02-.18,.02-.35,.11-.53h0c.95-.07,1.91-.17,2.86-.29,.09-.01,.17-.02,.26-.04Z"
            />
        </g>
        <g>
            <path
                style="fill: #1e232d;"
                d="M157.35,267.66c0-16.82,12.85-29.28,30.37-29.28s30.37,12.37,30.37,29.28-12.93,29.28-30.37,29.28-30.37-12.46-30.37-29.28Zm47.74,0c0-10.76-7.45-18.12-17.37-18.12s-17.37,7.36-17.37,18.12,7.45,18.12,17.37,18.12,17.37-7.36,17.37-18.12Z"
            />
            <path
                style="fill: #1e232d;"
                d="M222.67,274.21c0-13.1,9.91-22.4,23.79-22.4,8.96,0,16.02,3.96,19.11,11.08l-9.6,5.26c-2.3-4.12-5.71-5.98-9.59-5.98-6.26,0-11.18,4.45-11.18,12.05s4.92,12.05,11.18,12.05c3.89,0,7.29-1.78,9.59-5.98l9.6,5.34c-3.09,6.96-10.15,11-19.11,11-13.88,0-23.79-9.3-23.79-22.4Z"
            />
            <path
                style="fill: #1e232d;"
                d="M301.91,293.86c-2.54,1.86-6.26,2.75-10.07,2.75-10.07,0-15.94-5.26-15.94-15.61v-17.87h-6.58v-9.71h6.58v-10.6h12.37v10.6h10.63v9.71h-10.63v17.71c0,3.72,1.98,5.74,5.31,5.74,1.82,0,3.65-.57,5-1.62l3.33,8.9Z"
            />
            <path
                style="fill: #1e232d;"
                d="M304.37,274.21c0-13.1,9.91-22.4,23.47-22.4s23.39,9.3,23.39,22.4-9.83,22.4-23.39,22.4-23.47-9.3-23.47-22.4Zm34.33,0c0-7.52-4.68-12.05-10.86-12.05s-10.94,4.53-10.94,12.05,4.76,12.05,10.94,12.05,10.86-4.53,10.86-12.05Z"
            />
            <path
                style="fill: #1e232d;"
                d="M403.84,274.21c0,13.67-9.28,22.4-21.25,22.4-5.31,0-9.67-1.7-12.85-5.26v20.3h-12.37v-59.21h11.81v5.01c3.09-3.8,7.69-5.66,13.4-5.66,11.97,0,21.25,8.74,21.25,22.4Zm-12.53,0c0-7.52-4.68-12.05-10.86-12.05s-10.86,4.53-10.86,12.05,4.68,12.05,10.86,12.05,10.86-4.53,10.86-12.05Z"
            />
            <path
                style="fill: #1e232d;"
                d="M454.01,252.45v43.51h-11.74v-5.18c-3.25,3.8-8.01,5.82-13.24,5.82-10.71,0-18.24-6.15-18.24-19.57v-24.59h12.37v22.73c0,7.28,3.17,10.51,8.64,10.51s9.83-3.72,9.83-11.73v-21.51h12.37Z"
            />
            <path
                style="fill: #1e232d;"
                d="M461.38,291.92l4.12-9.06c3.81,2.51,9.59,4.21,14.83,4.21,5.71,0,7.85-1.54,7.85-3.96,0-7.12-25.77,.16-25.77-17.23,0-8.25,7.3-14.07,19.75-14.07,5.87,0,12.37,1.37,16.41,3.8l-4.12,8.98c-4.2-2.43-8.41-3.24-12.29-3.24-5.55,0-7.93,1.78-7.93,4.04,0,7.44,25.77,.24,25.77,17.39,0,8.09-7.37,13.83-20.14,13.83-7.22,0-14.51-2.02-18.48-4.69Z"
            />
        </g>
    </svg>
