<svg viewBox="0 0 136 70" xmlns="http://www.w3.org/2000/svg" xmlns:xlink="http://www.w3.org/1999/xlink"><title>elife-logo</title><defs><path id="a" d="M.009 50V.067h49.924V50H.009z"/></defs><g fill="none" fill-rule="evenodd"><path d="M40.922 46c-.277-1.917-.762-3.802-1.388-5.65a82.406 82.406 0 0 0-1.409-3.809c-.225.234-.446.472-.658.717a16.223 16.223 0 0 0-2.16 3.103 28.914 28.914 0 0 1 1.39 5.77c.52 3.736.393 7.492-.054 11.169a22.173 22.173 0 0 0 3.063-.443 21.382 21.382 0 0 0 1.288-5.068 21.757 21.757 0 0 0-.072-5.79" fill="#2492C5"/><path d="M45.34 53.19c.286-.76.543-1.53.756-2.309.43-1.556.691-3.148.721-4.736.032-1.59-.177-3.165-.55-4.718-.368-1.557-.922-3.09-1.362-4.718-.409-1.476-.738-3.05-.752-4.664a33.404 33.404 0 0 0-2.7 1.712 23.88 23.88 0 0 0-1.97 1.51c.586 1.504 1.154 3.027 1.603 4.599.559 1.945 1 3.944 1.177 5.98a22.938 22.938 0 0 1-.245 6.1 22.59 22.59 0 0 1-1.392 4.692 22.232 22.232 0 0 0 3.892-1.419c.108-.306.248-.598.37-.895.158-.375.308-.753.453-1.133" fill="#1D5695"/><path d="M55.886 32.08c-.252.898-.565 1.76-.854 2.61-.284.851-.566 1.68-.796 2.512-.454 1.663-.703 3.344-.697 5.086 0 .869.056 1.75.183 2.627.064.439.142.877.231 1.315.028.137.06.273.09.408a22.3 22.3 0 0 0 2.984-8.197 22.266 22.266 0 0 0-.548-9.387 16.308 16.308 0 0 1-.593 3.025" fill="#632350"/><path d="M26.056 19.62c.12 1.887.468 3.743 1.085 5.496.506 1.52 1.24 2.933 2.072 4.317.158-.256.312-.514.476-.767a38.299 38.299 0 0 1 1.87-2.576 35.088 35.088 0 0 1 2.076-2.414c.024-.026.05-.05.075-.075l-.036-.225c-.29-2.037-.242-4.167.31-6.173.438-1.618 1.197-3.132 2.153-4.47a22.186 22.186 0 0 0-9.974 1.77c-.06.76-.124 1.514-.143 2.273-.031.951-.025 1.901.036 2.844" fill="#2492C5"/><path d="M35.078 17.467c-.338 1.6-.325 3.247-.079 4.868.31-.29.62-.578.94-.857 2.95-2.574 6.378-4.658 10.11-5.832a22.31 22.31 0 0 0-8.82-2.828l-.162-.012c-.406.632-.78 1.274-1.088 1.949a12.514 12.514 0 0 0-.901 2.712" fill="#1D5695"/><path d="M29.022 51.922c-.516-1.692-1.347-3.271-2.297-4.79a52.895 52.895 0 0 0-1.644-2.462 33.541 33.541 0 0 0-.526 5.018 31.562 31.562 0 0 0 .207 4.595c.026.215.055.436.076.659a22.268 22.268 0 0 0 4.945 1.807 18.326 18.326 0 0 0-.168-2.24c-.123-.882-.34-1.743-.593-2.587M46.965 16.2a24.879 24.879 0 0 0-5.251 2.584c-1.711 1.102-3.286 2.402-4.75 3.81a34.406 34.406 0 0 0-1.576 1.637c-.173.191-.35.378-.52.572-.252.289-.5.581-.747.875-.407.483-.808.972-1.19 1.475a41.17 41.17 0 0 0-1.75 2.492 39.32 39.32 0 0 0-.92 1.458c.824 1.274 1.687 2.553 2.486 3.9a34.774 34.774 0 0 1 1.727 3.298 17.205 17.205 0 0 1 1.659-2.216c.405-.455.833-.886 1.277-1.3.453-.422.923-.825 1.409-1.206a24.83 24.83 0 0 1 1.696-1.219 37.844 37.844 0 0 1 3.756-2.08c.182-1.317.557-2.6 1.11-3.776.707-1.577 1.645-3.002 2.659-4.34a39.361 39.361 0 0 1 2.565-3.062 22.124 22.124 0 0 0-3.64-2.903" fill="#C22252"/><path d="M54.63 31.634c1.56-3.354.69-5.79.44-6.306-.116-.238-.231-.475-.355-.709a22.64 22.64 0 0 0-1.742-2.78 22.606 22.606 0 0 0-1.812-2.166c-.276.368-.551.735-.818 1.11a36.508 36.508 0 0 0-1.358 2.03c-.848 1.382-1.584 2.82-2.135 4.295a18.61 18.61 0 0 0-.653 2.242l-.007.034a11.621 11.621 0 0 0-.257 2.248c-.052 1.531.217 3.075.626 4.635.416 1.558.892 3.164 1.215 4.834.33 1.666.467 3.4.33 5.106-.13 1.706-.504 3.376-1.043 4.97a27.38 27.38 0 0 1-.916 2.343c-.17.382-.346.761-.53 1.136l-.004.007a22.369 22.369 0 0 0 7.87-7.146 3.197 3.197 0 0 1-.175-.39 23.62 23.62 0 0 1-.66-1.978 18.84 18.84 0 0 1-.583-2.758 13.533 13.533 0 0 1 .475-5.673c.529-1.833 1.35-3.487 2.093-5.084" fill="#28346B"/><path d="M35.892 54.89a54.283 54.283 0 0 0-.086-2.865 44.671 44.671 0 0 0-.622-5.652 33.317 33.317 0 0 0-.906-3.735 25.682 25.682 0 0 0-.58-1.685c-.09-.24-.193-.475-.29-.712a31.347 31.347 0 0 0-2.193-4.327c-.613-1.032-1.274-2.052-1.93-3.092a64.944 64.944 0 0 1-1.052-1.718c-.02-.035-.042-.069-.063-.104-.987-1.698-1.852-3.526-2.401-5.453-.547-1.928-.777-3.922-.79-5.889a30.3 30.3 0 0 1 .125-2.939c.058-.613.125-1.225.212-1.832a22.4 22.4 0 0 0-2.868 1.645c-.632 1.638-1.227 3.284-1.662 4.97-.458 1.753-.774 3.536-.864 5.32-.091 1.782.039 3.561.436 5.276.196.858.466 1.697.781 2.519.31.825.679 1.63 1.093 2.417.658 1.258 1.44 2.462 2.248 3.668l.616.917.49.714c.876 1.28 1.755 2.582 2.544 3.964.93 1.64 1.704 3.414 2.156 5.278.235.93.346 1.887.391 2.837.039.842.002 1.688-.102 2.513.324.065.648.125.976.175.304.047.61.084.916.118.074.009.149.021.222.029.185.019.368.029.551.043.884.07 1.76.09 2.626.057.015-.821.026-1.64.026-2.457" fill="#5D9742"/><g transform="translate(10 10)"><mask id="b" fill="#fff"><use xlink:href="#a"/></mask><path d="M9.247 38.588a17.628 17.628 0 0 0-.92-3.256c-.808-2.111-1.93-4.093-3.038-6.145-.55-1.028-1.084-2.084-1.525-3.196a24.125 24.125 0 0 1-1.014-3.205C2.03 29.888 4.722 36.538 9.5 41.124a17.364 17.364 0 0 0-.254-2.537" fill="#5D3920" mask="url(#b)"/><path d="M27.525.2C13.832-1.211 1.544 8.782.133 22.475c-1.41 13.693 8.582 25.981 22.275 27.392 13.694 1.41 25.981-8.582 27.392-22.275C51.21 13.898 41.219 1.611 27.525.2zm-.124 1.205c13.03 1.342 22.537 13.034 21.194 26.063-1.342 13.029-13.034 22.536-26.063 21.194C9.503 47.32-.004 35.628 1.338 22.599 2.68 9.57 14.372.062 27.401 1.405z" fill="#8A8D8C" mask="url(#b)"/></g><path d="M74.444 37.569c-.024-1.752-1.175-2.853-3.056-2.853-1.774 0-2.875 1.126-3.101 2.853h6.157zm-6.157 2.253c.2 1.777 1.551 2.853 3.228 2.853 1.502 0 2.478-.701 3.23-1.627l2.152 1.627c-1.401 1.727-3.176 2.403-5.08 2.403-3.629 0-6.533-2.528-6.533-6.307 0-3.78 2.904-6.307 6.534-6.307 3.353 0 5.63 2.353 5.63 6.532v.826h-9.161z" fill="#8A8D8C"/><path fill="#676866" d="M80 27h3v15h8v3H80V27M93 45h3V27h-3zM100 27h11v3h-8v5h8v3h-8v7h-3V27M114 27h12v3h-9v4h8v3h-8v5h9v3h-12V27"/><path d="M23.963 54.448a33.085 33.085 0 0 1-.236-1.61 32.608 32.608 0 0 1-.222-3.153c-.047-2.11.107-4.226.441-6.316l.044-.254c-.116-.164-.232-.328-.347-.494-1.067-1.51-2.09-3.094-2.955-4.79a22.925 22.925 0 0 1-1.145-2.626 18.845 18.845 0 0 1-.744-2.781 19.57 19.57 0 0 1-.213-5.706c.344-3.255 1.34-6.344 2.617-9.277-5.119 3.685-8.922 11.73-7.623 14.837.44 1.052.973 2.061 1.55 3.05.58.989 1.165 1.982 1.728 3.007 1.122 2.044 2.204 4.21 2.84 6.55.32 1.165.535 2.362.637 3.563a18.437 18.437 0 0 1 .024 2.704l-.036.446c-.009.08-.022.16-.037.241a22.33 22.33 0 0 0 3.677 2.61c-.001-.007-.002-.013 0 0" fill="#165B31"/></g></svg>