<svg id="svg" version="1.1" xmlns="http://www.w3.org/2000/svg" xmlns:xlink="http://www.w3.org/1999/xlink" width="400" height="400" viewBox="0, 0, 400,400">
    <g id="svgg">
        <path id="path0" d="M225.200 87.200 L 225.200 112.400 282.788 112.400 L 340.376 112.400 342.587 113.411 C 351.578 117.524,352.950 129.308,345.122 135.189 C 341.730 137.737,345.294 137.600,282.606 137.600 L 225.200 137.600 225.200 150.000 L 225.200 162.400 282.788 162.400 L 340.376 162.400 342.587 163.411 C 351.578 167.524,352.950 179.308,345.122 185.189 C 341.730 187.737,345.294 187.600,282.606 187.600 L 225.200 187.600 225.200 200.000 L 225.200 212.400 282.788 212.400 L 340.376 212.400 342.587 213.411 C 351.578 217.524,352.950 229.308,345.122 235.189 C 341.730 237.737,345.294 237.600,282.606 237.600 L 225.200 237.600 225.200 250.000 L 225.200 262.400 282.788 262.400 L 340.376 262.400 342.587 263.411 C 351.578 267.524,352.950 279.308,345.122 285.189 C 341.730 287.737,345.294 287.600,282.606 287.600 L 225.200 287.600 225.200 312.800 L 225.200 338.000 308.321 338.000 L 391.443 338.000 393.421 337.008 C 395.743 335.845,398.800 333.157,398.800 332.280 C 398.800 331.942,399.025 331.592,399.300 331.500 C 399.699 331.367,399.800 304.711,399.800 200.000 C 399.800 95.289,399.699 68.633,399.300 68.500 C 399.025 68.408,398.800 67.978,398.800 67.543 C 398.800 67.108,398.620 66.864,398.400 67.000 C 398.180 67.136,398.000 67.039,398.000 66.784 C 398.000 66.195,395.164 63.622,394.500 63.609 C 394.225 63.604,394.000 63.420,394.000 63.200 C 394.000 62.980,393.651 62.800,393.224 62.800 C 392.797 62.800,392.336 62.620,392.200 62.400 C 392.036 62.135,363.729 62.000,308.576 62.000 L 225.200 62.000 225.200 87.200 M159.800 138.161 C 153.607 139.926,150.763 143.882,149.990 151.806 C 149.573 156.082,147.633 173.767,146.788 181.000 C 146.583 182.760,146.228 186.000,146.001 188.200 C 145.498 193.052,144.977 197.528,144.415 201.800 C 144.184 203.560,143.993 205.630,143.991 206.400 C 143.983 209.520,142.834 209.026,141.663 205.400 C 141.180 203.903,140.994 203.414,140.022 201.100 C 139.814 200.605,138.995 198.400,138.202 196.200 C 137.409 194.000,136.211 190.760,135.540 189.000 C 134.869 187.240,133.961 184.810,133.521 183.600 C 133.082 182.390,132.577 181.040,132.400 180.600 C 132.223 180.160,131.683 178.720,131.200 177.400 C 130.717 176.080,130.177 174.640,130.000 174.200 C 129.823 173.760,129.283 172.320,128.800 171.000 C 127.765 168.170,127.449 167.343,126.893 166.000 C 126.665 165.450,126.091 163.920,125.619 162.600 C 122.499 153.886,119.471 151.366,112.200 151.433 C 107.835 151.473,105.584 152.387,103.213 155.080 C 101.558 156.960,101.418 157.294,94.362 176.100 C 93.681 177.915,92.979 179.760,92.802 180.200 C 92.625 180.640,92.264 181.630,92.000 182.400 C 91.736 183.170,91.333 184.250,91.106 184.800 C 90.546 186.155,90.228 186.989,89.200 189.800 C 88.717 191.120,88.170 192.560,87.985 193.000 C 87.799 193.440,86.175 197.760,84.375 202.600 C 80.362 213.394,80.146 213.639,79.531 208.095 C 79.249 205.543,78.865 202.729,77.990 196.800 C 77.779 195.370,77.431 192.940,77.217 191.400 C 76.662 187.405,76.067 183.251,75.570 179.900 C 75.334 178.305,74.996 176.010,74.820 174.800 C 73.391 165.000,65.578 160.395,56.919 164.249 C 51.894 166.486,49.687 171.940,50.789 179.400 C 51.419 183.670,51.918 187.170,52.414 190.800 C 52.640 192.450,52.999 195.015,53.212 196.500 C 53.630 199.409,54.156 203.090,54.813 207.700 C 55.041 209.295,55.399 211.770,55.610 213.200 C 55.821 214.630,56.171 217.060,56.386 218.600 C 56.602 220.140,56.950 222.570,57.161 224.000 C 57.572 226.794,58.221 231.357,58.825 235.700 C 59.184 238.286,59.757 242.218,60.209 245.200 C 60.326 245.970,60.607 247.950,60.834 249.600 C 61.062 251.250,61.408 253.680,61.605 255.000 C 61.801 256.320,62.171 258.930,62.426 260.800 C 63.713 270.219,67.845 274.591,75.403 274.531 C 81.581 274.483,84.824 271.353,88.178 262.200 C 88.984 260.000,89.797 257.840,89.983 257.400 C 90.170 256.960,90.717 255.520,91.200 254.200 C 91.683 252.880,92.265 251.350,92.493 250.800 C 93.083 249.377,93.451 248.400,94.000 246.800 C 94.264 246.030,94.643 244.995,94.840 244.500 C 95.038 244.005,95.362 243.195,95.560 242.700 C 95.757 242.205,96.136 241.170,96.400 240.400 C 96.664 239.630,97.025 238.640,97.202 238.200 C 97.791 236.735,99.932 231.048,101.356 227.168 C 102.129 225.061,103.505 221.371,104.413 218.968 C 106.508 213.425,108.071 209.277,109.638 205.100 C 110.319 203.285,111.023 201.440,111.202 201.000 C 111.381 200.560,111.628 199.885,111.751 199.500 C 112.359 197.597,113.214 199.165,116.762 208.700 C 120.402 218.483,122.571 224.244,123.199 225.800 C 123.377 226.240,123.917 227.680,124.400 229.000 C 124.883 230.320,125.423 231.760,125.600 232.200 C 125.777 232.640,126.317 234.080,126.800 235.400 C 127.283 236.720,127.831 238.160,128.019 238.600 C 128.206 239.040,129.546 242.640,130.995 246.600 C 132.444 250.560,134.180 255.240,134.854 257.000 C 135.528 258.760,136.438 261.190,136.876 262.400 C 140.609 272.707,146.297 276.593,153.771 273.939 C 157.634 272.568,161.600 268.412,161.600 265.736 C 161.600 265.247,161.757 264.750,161.948 264.632 C 162.140 264.514,162.406 263.018,162.541 261.308 C 162.675 259.599,162.964 256.670,163.182 254.800 C 163.401 252.930,163.758 249.780,163.976 247.800 C 164.194 245.820,164.570 242.490,164.812 240.400 C 165.281 236.344,165.706 232.513,166.366 226.400 C 167.032 220.229,167.546 215.633,168.000 211.800 C 168.234 209.820,168.598 206.490,168.809 204.400 C 169.261 199.927,170.653 187.169,171.188 182.600 C 171.394 180.840,171.759 177.600,172.000 175.400 C 172.241 173.200,172.598 169.960,172.793 168.200 C 172.989 166.440,173.347 163.110,173.589 160.800 C 173.830 158.490,174.202 155.499,174.414 154.154 C 176.067 143.675,168.708 135.621,159.800 138.161 " stroke="none" fill="#efeff5" fill-rule="evenodd"></path>
        <path id="path1" d="M225.000 125.000 L 225.000 137.400 282.600 137.192 C 314.977 137.076,340.638 136.828,341.200 136.626 C 352.392 132.610,352.278 117.581,341.023 113.451 C 340.150 113.131,323.379 112.945,282.400 112.801 L 225.000 112.600 225.000 125.000 M149.693 148.400 C 149.693 149.170,149.775 149.485,149.876 149.100 C 149.976 148.715,149.976 148.085,149.876 147.700 C 149.775 147.315,149.693 147.630,149.693 148.400 M108.657 150.707 C 108.553 150.876,109.172 150.948,110.034 150.865 C 110.895 150.783,111.600 150.645,111.600 150.558 C 111.600 150.260,108.847 150.400,108.657 150.707 M113.400 150.603 C 114.314 150.921,116.729 151.009,116.548 150.716 C 116.441 150.542,115.598 150.414,114.676 150.432 C 113.754 150.449,113.180 150.526,113.400 150.603 M148.920 154.400 C 148.920 155.610,148.995 156.105,149.087 155.500 C 149.178 154.895,149.178 153.905,149.087 153.300 C 148.995 152.695,148.920 153.190,148.920 154.400 M102.975 154.100 L 101.800 155.400 103.100 154.225 C 104.312 153.130,104.584 152.800,104.275 152.800 C 104.206 152.800,103.621 153.385,102.975 154.100 M174.622 156.222 C 174.472 157.025,174.428 157.762,174.526 157.860 C 174.624 157.957,174.827 157.381,174.978 156.578 C 175.128 155.775,175.172 155.038,175.074 154.940 C 174.976 154.843,174.773 155.419,174.622 156.222 M148.120 161.600 C 148.120 162.810,148.195 163.305,148.287 162.700 C 148.378 162.095,148.378 161.105,148.287 160.500 C 148.195 159.895,148.120 160.390,148.120 161.600 M173.850 163.250 C 173.517 164.917,173.840 165.240,174.200 163.600 C 174.352 162.909,174.393 162.259,174.291 162.158 C 174.189 162.056,173.991 162.547,173.850 163.250 M225.000 175.000 L 225.000 187.400 282.600 187.192 C 314.977 187.076,340.638 186.828,341.200 186.626 C 352.392 182.610,352.278 167.581,341.023 163.451 C 340.150 163.131,323.379 162.945,282.400 162.801 L 225.000 162.600 225.000 175.000 M71.200 165.800 C 71.946 166.570,72.647 167.200,72.757 167.200 C 72.867 167.200,72.346 166.570,71.600 165.800 C 70.854 165.030,70.153 164.400,70.043 164.400 C 69.933 164.400,70.454 165.030,71.200 165.800 M147.260 169.250 C 147.227 169.828,147.111 170.908,147.001 171.650 L 146.803 173.000 147.224 171.657 C 147.455 170.919,147.572 169.839,147.482 169.257 L 147.320 168.200 147.260 169.250 M173.050 170.450 C 172.717 172.117,173.040 172.440,173.400 170.800 C 173.552 170.109,173.593 169.459,173.491 169.358 C 173.389 169.256,173.191 169.747,173.050 170.450 M49.742 175.400 C 49.741 177.380,49.808 178.240,49.892 177.312 C 49.976 176.384,49.977 174.764,49.895 173.712 C 49.812 172.660,49.743 173.420,49.742 175.400 M146.464 176.250 C 146.429 176.938,146.311 178.108,146.201 178.850 L 146.003 180.200 146.424 178.858 C 146.655 178.120,146.773 176.950,146.686 176.258 L 146.528 175.000 146.464 176.250 M172.253 177.636 C 172.114 178.331,172.022 179.463,172.049 180.150 C 172.078 180.894,172.238 180.440,172.443 179.028 C 172.811 176.504,172.676 175.518,172.253 177.636 M76.028 180.276 C 76.118 181.315,76.744 182.196,76.772 181.324 C 76.787 180.842,76.620 180.336,76.400 180.200 C 76.180 180.064,76.013 180.098,76.028 180.276 M50.428 183.433 C 50.444 184.295,50.609 185.360,50.796 185.800 C 51.008 186.298,51.051 185.769,50.912 184.400 C 50.644 181.765,50.389 181.257,50.428 183.433 M145.400 185.600 C 145.248 186.291,145.207 186.941,145.309 187.042 C 145.411 187.144,145.609 186.653,145.750 185.950 C 146.083 184.283,145.760 183.960,145.400 185.600 M171.301 186.600 C 171.305 187.480,171.387 187.793,171.483 187.295 C 171.579 186.798,171.575 186.078,171.475 185.695 C 171.375 185.313,171.296 185.720,171.301 186.600 M76.828 185.876 C 76.918 186.915,77.544 187.796,77.572 186.924 C 77.587 186.442,77.420 185.936,77.200 185.800 C 76.980 185.664,76.813 185.698,76.828 185.876 M51.301 189.000 C 51.305 189.880,51.387 190.193,51.483 189.695 C 51.579 189.198,51.575 188.478,51.475 188.095 C 51.375 187.713,51.296 188.120,51.301 189.000 M77.628 191.476 C 77.718 192.515,78.344 193.396,78.372 192.524 C 78.387 192.042,78.220 191.536,78.000 191.400 C 77.780 191.264,77.613 191.298,77.628 191.476 M144.600 192.800 C 144.448 193.491,144.407 194.141,144.509 194.242 C 144.611 194.344,144.809 193.853,144.950 193.150 C 145.283 191.483,144.960 191.160,144.600 192.800 M170.520 194.800 C 170.520 196.010,170.595 196.505,170.687 195.900 C 170.778 195.295,170.778 194.305,170.687 193.700 C 170.595 193.095,170.520 193.590,170.520 194.800 M52.006 195.033 C 52.009 195.675,52.184 196.470,52.395 196.800 C 52.655 197.209,52.699 196.890,52.532 195.800 C 52.229 193.823,51.998 193.486,52.006 195.033 M78.644 197.400 C 78.973 198.871,79.202 199.190,79.194 198.167 C 79.191 197.745,79.005 197.130,78.782 196.800 C 78.485 196.362,78.448 196.524,78.644 197.400 M143.873 199.353 C 143.723 199.745,143.611 200.366,143.625 200.733 C 143.642 201.175,143.781 201.074,144.037 200.434 C 144.249 199.903,144.361 199.282,144.285 199.054 C 144.209 198.827,144.024 198.961,143.873 199.353 M52.806 200.633 C 52.809 201.275,52.984 202.070,53.195 202.400 C 53.455 202.809,53.499 202.490,53.332 201.400 C 53.029 199.423,52.798 199.086,52.806 200.633 M169.720 201.600 C 169.720 202.810,169.795 203.305,169.887 202.700 C 169.978 202.095,169.978 201.105,169.887 200.500 C 169.795 199.895,169.720 200.390,169.720 201.600 M79.458 203.200 C 79.775 204.925,80.002 205.251,79.994 203.967 C 79.991 203.435,79.811 202.730,79.594 202.400 C 79.318 201.978,79.277 202.215,79.458 203.200 M53.606 205.833 C 53.609 206.475,53.784 207.270,53.995 207.600 C 54.255 208.009,54.299 207.690,54.132 206.600 C 53.829 204.623,53.598 204.286,53.606 205.833 M168.920 208.800 C 168.920 210.010,168.995 210.505,169.087 209.900 C 169.178 209.295,169.178 208.305,169.087 207.700 C 168.995 207.095,168.920 207.590,168.920 208.800 M80.246 208.600 C 80.388 209.260,80.680 209.980,80.897 210.200 C 81.155 210.463,81.189 210.257,80.997 209.600 C 80.523 207.985,79.951 207.223,80.246 208.600 M54.406 211.833 C 54.409 212.255,54.595 212.870,54.818 213.200 C 55.115 213.638,55.152 213.476,54.956 212.600 C 54.627 211.129,54.398 210.810,54.406 211.833 M225.000 225.000 L 225.000 237.400 282.600 237.192 C 314.977 237.076,340.638 236.828,341.200 236.626 C 352.392 232.610,352.278 217.581,341.023 213.451 C 340.150 213.131,323.379 212.945,282.400 212.801 L 225.000 212.600 225.000 225.000 M168.070 216.250 C 168.031 217.157,167.911 218.507,167.801 219.250 L 167.603 220.600 168.023 219.262 C 168.253 218.527,168.374 217.177,168.291 216.262 L 168.140 214.600 168.070 216.250 M55.206 217.233 C 55.209 217.765,55.389 218.470,55.606 218.800 C 55.882 219.222,55.923 218.985,55.742 218.000 C 55.425 216.275,55.198 215.949,55.206 217.233 M56.006 222.833 C 56.009 223.365,56.189 224.070,56.406 224.400 C 56.682 224.822,56.723 224.585,56.542 223.600 C 56.225 221.875,55.998 221.549,56.006 222.833 M167.314 223.800 C 167.317 224.900,167.395 225.303,167.487 224.695 C 167.579 224.086,167.577 223.186,167.482 222.695 C 167.387 222.203,167.311 222.700,167.314 223.800 M102.891 224.500 C 102.210 226.384,102.304 226.894,103.026 225.230 C 103.353 224.477,103.566 223.699,103.501 223.502 C 103.435 223.305,103.160 223.754,102.891 224.500 M56.828 228.676 C 56.813 229.158,56.980 229.664,57.200 229.800 C 57.673 230.092,57.673 229.701,57.200 228.600 C 56.869 227.829,56.855 227.831,56.828 228.676 M166.462 231.200 C 166.422 231.970,166.296 233.050,166.183 233.600 L 165.977 234.600 166.408 233.614 C 166.644 233.071,166.770 231.991,166.686 231.214 L 166.534 229.800 166.462 231.200 M57.600 234.110 C 57.600 234.683,57.787 235.268,58.016 235.410 C 58.289 235.579,58.338 235.277,58.160 234.534 C 57.792 233.001,57.600 232.856,57.600 234.110 M165.662 238.400 C 165.622 239.170,165.496 240.250,165.383 240.800 L 165.177 241.800 165.608 240.814 C 165.844 240.271,165.970 239.191,165.886 238.414 L 165.734 237.000 165.662 238.400 M58.428 239.876 C 58.413 240.358,58.580 240.864,58.800 241.000 C 59.273 241.292,59.273 240.901,58.800 239.800 C 58.469 239.029,58.455 239.031,58.428 239.876 M164.859 245.400 C 164.820 246.060,164.696 247.050,164.583 247.600 L 164.377 248.600 164.808 247.614 C 165.044 247.072,165.168 246.082,165.083 245.414 L 164.928 244.200 164.859 245.400 M60.006 250.633 C 60.009 251.055,60.195 251.670,60.418 252.000 C 60.715 252.438,60.752 252.276,60.556 251.400 C 60.227 249.929,59.998 249.610,60.006 250.633 M164.059 252.800 C 164.020 253.350,163.889 254.250,163.767 254.800 C 163.576 255.662,163.608 255.702,163.997 255.091 C 164.246 254.702,164.377 253.802,164.289 253.091 C 164.164 252.087,164.113 252.022,164.059 252.800 M163.260 260.067 C 163.227 260.654,163.096 261.464,162.970 261.867 C 162.752 262.560,162.765 262.561,163.195 261.890 C 163.446 261.499,163.577 260.689,163.486 260.090 L 163.320 259.000 163.260 260.067 M61.656 261.600 C 61.656 261.930,61.811 262.560,62.000 263.000 C 62.217 263.504,62.344 263.578,62.344 263.200 C 62.344 262.870,62.189 262.240,62.000 261.800 C 61.783 261.296,61.656 261.222,61.656 261.600 M225.000 275.000 L 225.000 287.400 282.600 287.192 C 314.977 287.076,340.638 286.828,341.200 286.626 C 352.392 282.610,352.278 267.581,341.023 263.451 C 340.150 263.131,323.379 262.945,282.400 262.801 L 225.000 262.600 225.000 275.000 M64.800 270.525 C 64.800 270.594,65.385 271.179,66.100 271.825 L 67.400 273.000 66.225 271.700 C 65.130 270.488,64.800 270.216,64.800 270.525 " stroke="none" fill="#1c74d4" fill-rule="evenodd"></path>
        <path id="path2" d="M207.000 12.400 C 207.153 12.648,206.404 12.800,205.024 12.800 C 203.801 12.800,202.800 12.963,202.800 13.161 C 202.800 13.360,201.855 13.633,200.700 13.768 C 199.545 13.903,197.700 14.117,196.600 14.244 C 195.500 14.370,194.429 14.637,194.220 14.837 C 194.011 15.037,193.066 15.200,192.120 15.200 C 191.174 15.200,190.400 15.380,190.400 15.600 C 190.400 15.820,189.446 16.000,188.280 16.000 C 187.114 16.000,185.983 16.177,185.767 16.393 C 185.550 16.610,184.531 16.819,183.503 16.858 C 182.474 16.897,181.726 17.080,181.840 17.264 C 181.954 17.449,181.062 17.600,179.857 17.600 C 178.652 17.600,177.607 17.769,177.533 17.976 C 177.460 18.183,176.472 18.408,175.338 18.475 C 174.203 18.543,173.359 18.733,173.461 18.899 C 173.564 19.065,172.647 19.200,171.424 19.200 C 170.201 19.200,169.200 19.380,169.200 19.600 C 169.200 19.820,168.401 20.000,167.424 20.000 C 166.447 20.000,165.536 20.180,165.400 20.400 C 165.264 20.620,164.163 20.800,162.953 20.800 C 161.588 20.800,160.847 20.952,161.000 21.200 C 161.153 21.448,160.404 21.600,159.024 21.600 C 157.801 21.600,156.800 21.780,156.800 22.000 C 156.800 22.220,155.900 22.400,154.800 22.400 C 153.700 22.400,152.800 22.580,152.800 22.800 C 152.800 23.020,151.821 23.200,150.624 23.200 C 149.427 23.200,148.336 23.380,148.200 23.600 C 148.064 23.820,147.164 24.000,146.200 24.000 C 145.236 24.000,144.336 24.180,144.200 24.400 C 144.064 24.620,143.164 24.800,142.200 24.800 C 141.236 24.800,140.336 24.981,140.199 25.201 C 140.063 25.422,139.536 25.499,139.029 25.372 C 138.522 25.244,137.318 25.355,136.354 25.616 C 135.389 25.878,134.150 26.092,133.600 26.092 C 133.050 26.091,132.295 26.251,131.923 26.447 C 131.550 26.644,130.507 26.833,129.605 26.868 C 128.703 26.904,127.873 27.083,127.759 27.266 C 127.646 27.450,126.764 27.600,125.800 27.600 C 124.836 27.600,123.936 27.780,123.800 28.000 C 123.664 28.220,122.753 28.400,121.776 28.400 C 120.799 28.400,120.000 28.549,120.000 28.732 C 120.000 28.914,118.965 29.104,117.700 29.154 C 116.435 29.204,115.340 29.415,115.267 29.622 C 115.193 29.830,114.416 30.000,113.540 30.000 C 112.664 30.000,111.629 30.170,111.241 30.378 C 110.852 30.586,109.694 30.800,108.667 30.853 C 107.640 30.906,106.800 31.096,106.800 31.275 C 106.800 31.454,105.900 31.600,104.800 31.600 C 103.700 31.600,102.800 31.780,102.800 32.000 C 102.800 32.220,101.821 32.400,100.624 32.400 C 99.427 32.400,98.336 32.580,98.200 32.800 C 98.064 33.020,97.243 33.200,96.376 33.200 C 95.509 33.200,94.800 33.348,94.800 33.529 C 94.800 33.709,93.855 33.899,92.700 33.951 C 91.545 34.002,90.540 34.214,90.467 34.422 C 90.393 34.630,89.369 34.800,88.190 34.800 C 87.012 34.800,85.936 34.980,85.800 35.200 C 85.664 35.420,84.663 35.600,83.576 35.600 C 82.489 35.600,81.600 35.780,81.600 36.000 C 81.600 36.220,80.689 36.400,79.576 36.400 C 78.329 36.400,77.648 36.553,77.800 36.800 C 77.954 37.050,77.137 37.200,75.624 37.200 C 74.275 37.200,73.200 37.377,73.200 37.600 C 73.200 37.820,72.289 38.000,71.176 38.000 C 69.929 38.000,69.248 38.153,69.400 38.400 C 69.552 38.646,68.897 38.800,67.704 38.800 C 66.635 38.800,65.589 38.970,65.380 39.177 C 65.171 39.385,64.055 39.597,62.900 39.649 C 61.745 39.701,60.800 39.891,60.800 40.071 C 60.800 40.252,60.080 40.400,59.200 40.400 C 58.320 40.400,57.600 40.580,57.600 40.800 C 57.600 41.020,56.785 41.200,55.789 41.200 C 53.816 41.200,48.800 42.055,48.800 42.391 C 48.800 42.506,48.035 42.567,47.100 42.526 C 45.934 42.475,45.243 42.656,44.900 43.102 C 44.624 43.461,44.400 43.544,44.400 43.286 C 44.400 42.980,44.091 42.923,43.500 43.121 C 43.005 43.286,42.105 43.399,41.500 43.370 C 40.895 43.342,40.400 43.472,40.400 43.660 C 40.400 43.847,39.578 44.000,38.574 44.000 C 37.569 44.000,36.434 44.168,36.052 44.372 C 35.669 44.577,34.603 44.815,33.683 44.901 C 32.763 44.987,31.888 45.179,31.738 45.328 C 31.589 45.478,30.723 45.600,29.813 45.600 C 28.904 45.600,27.989 45.766,27.780 45.968 C 27.571 46.171,26.590 46.382,25.600 46.439 C 24.610 46.495,23.614 46.679,23.387 46.848 C 23.159 47.016,22.124 47.198,21.087 47.252 C 20.049 47.306,19.200 47.496,19.200 47.675 C 19.200 47.854,18.300 48.000,17.200 48.000 C 16.100 48.000,15.200 48.180,15.200 48.400 C 15.200 48.620,14.311 48.800,13.224 48.800 C 12.137 48.800,11.136 48.980,11.000 49.200 C 10.864 49.420,10.058 49.600,9.210 49.600 C 8.361 49.600,7.607 49.767,7.533 49.970 C 7.460 50.174,7.138 50.399,6.818 50.470 C 6.498 50.542,5.812 51.008,5.292 51.508 C 4.773 52.007,4.152 52.294,3.912 52.146 C 3.651 51.985,3.591 52.062,3.762 52.338 C 3.919 52.592,3.844 52.800,3.595 52.800 C 2.938 52.800,2.000 53.841,2.000 54.571 C 2.000 54.917,1.820 55.200,1.600 55.200 C 1.380 55.200,1.200 55.481,1.200 55.824 C 1.200 56.167,1.042 56.350,0.849 56.230 C 0.051 55.737,0.000 64.313,0.000 200.000 C 0.000 335.687,0.051 344.263,0.849 343.770 C 1.042 343.650,1.200 343.833,1.200 344.176 C 1.200 344.519,1.380 344.800,1.600 344.800 C 1.820 344.800,2.000 345.083,2.000 345.429 C 2.000 346.159,2.938 347.200,3.595 347.200 C 3.844 347.200,3.919 347.408,3.762 347.662 C 3.591 347.938,3.651 348.015,3.912 347.854 C 4.152 347.706,4.802 348.038,5.356 348.592 C 5.910 349.147,6.642 349.600,6.982 349.600 C 7.322 349.600,7.600 349.780,7.600 350.000 C 7.600 350.220,8.309 350.400,9.176 350.400 C 10.043 350.400,10.843 350.546,10.953 350.724 C 11.063 350.902,12.019 351.092,13.077 351.146 C 14.134 351.199,15.060 351.413,15.133 351.621 C 15.207 351.830,16.152 352.000,17.233 352.000 C 18.315 352.000,19.200 352.180,19.200 352.400 C 19.200 352.620,20.089 352.800,21.176 352.800 C 22.263 352.800,23.264 352.980,23.400 353.200 C 23.536 353.420,24.526 353.600,25.600 353.600 C 26.674 353.600,27.664 353.780,27.800 354.000 C 27.936 354.220,28.836 354.400,29.800 354.400 C 30.764 354.400,31.642 354.544,31.751 354.720 C 31.860 354.896,32.709 355.085,33.638 355.140 C 34.567 355.195,35.647 355.411,36.037 355.620 C 36.428 355.829,37.569 356.000,38.574 356.000 C 39.578 356.000,40.400 356.145,40.400 356.322 C 40.400 356.499,41.149 356.688,42.064 356.742 C 42.979 356.796,44.014 356.986,44.364 357.164 C 44.714 357.342,45.791 357.512,46.758 357.543 C 47.725 357.574,48.715 357.763,48.958 357.963 C 49.201 358.163,51.065 358.457,53.100 358.615 C 55.135 358.774,56.800 359.026,56.800 359.177 C 56.800 359.327,57.651 359.495,58.691 359.548 C 59.731 359.602,60.676 359.782,60.791 359.947 C 60.906 360.112,61.900 360.297,63.000 360.357 C 64.100 360.417,65.060 360.631,65.133 360.833 C 65.207 361.035,66.152 361.200,67.233 361.200 C 68.315 361.200,69.200 361.380,69.200 361.600 C 69.200 361.820,70.100 362.000,71.200 362.000 C 72.530 362.000,73.202 362.167,73.206 362.500 C 73.210 362.833,73.342 362.800,73.600 362.400 C 73.858 362.000,73.990 361.967,73.994 362.300 C 73.998 362.633,74.675 362.800,76.024 362.800 C 77.271 362.800,77.952 362.953,77.800 363.200 C 77.648 363.447,78.329 363.600,79.576 363.600 C 80.689 363.600,81.600 363.780,81.600 364.000 C 81.600 364.220,82.489 364.400,83.576 364.400 C 84.663 364.400,85.664 364.580,85.800 364.800 C 85.936 365.020,87.027 365.200,88.224 365.200 C 89.421 365.200,90.400 365.380,90.400 365.600 C 90.400 365.820,91.199 366.000,92.176 366.000 C 93.153 366.000,94.064 366.180,94.200 366.400 C 94.336 366.620,95.236 366.800,96.200 366.800 C 97.164 366.800,98.064 366.980,98.200 367.200 C 98.336 367.420,99.427 367.600,100.624 367.600 C 101.821 367.600,102.800 367.780,102.800 368.000 C 102.800 368.220,103.700 368.400,104.800 368.400 C 105.900 368.400,106.800 368.580,106.800 368.800 C 106.800 369.020,107.689 369.200,108.776 369.200 C 109.863 369.200,110.864 369.380,111.000 369.600 C 111.136 369.820,112.137 370.000,113.224 370.000 C 114.311 370.000,115.200 370.163,115.200 370.363 C 115.200 370.563,116.145 370.820,117.300 370.934 C 118.455 371.049,120.390 371.343,121.600 371.589 C 122.810 371.834,124.589 372.115,125.554 372.213 C 126.518 372.311,127.512 372.561,127.761 372.768 C 128.010 372.975,129.230 373.200,130.472 373.268 C 131.713 373.336,132.655 373.510,132.566 373.656 C 132.476 373.801,133.167 374.019,134.101 374.141 C 138.841 374.760,144.438 375.609,146.400 376.007 C 147.610 376.252,149.500 376.547,150.600 376.663 C 151.700 376.779,152.771 377.037,152.980 377.237 C 153.189 377.437,154.134 377.600,155.080 377.600 C 156.026 377.600,156.800 377.780,156.800 378.000 C 156.800 378.220,157.700 378.400,158.800 378.400 C 159.900 378.400,160.800 378.580,160.800 378.800 C 160.800 379.020,161.790 379.200,163.000 379.200 C 164.210 379.200,165.200 379.380,165.200 379.600 C 165.200 379.820,166.201 380.000,167.424 380.000 C 168.804 380.000,169.553 380.152,169.400 380.400 C 169.246 380.649,170.004 380.800,171.400 380.800 C 172.636 380.800,173.553 380.952,173.439 381.137 C 173.324 381.323,174.169 381.507,175.315 381.547 C 176.462 381.587,177.460 381.795,177.533 382.010 C 177.607 382.224,178.552 382.400,179.633 382.400 C 180.715 382.400,181.600 382.580,181.600 382.800 C 181.600 383.020,182.489 383.200,183.576 383.200 C 184.663 383.200,185.664 383.380,185.800 383.600 C 185.936 383.820,187.027 384.000,188.224 384.000 C 189.421 384.000,190.400 384.180,190.400 384.400 C 190.400 384.620,191.199 384.800,192.176 384.800 C 193.153 384.800,194.064 384.980,194.200 385.200 C 194.336 385.420,195.326 385.600,196.400 385.600 C 197.474 385.600,198.464 385.780,198.600 386.000 C 198.736 386.220,199.737 386.400,200.824 386.400 C 201.911 386.400,202.800 386.580,202.800 386.800 C 202.800 387.020,203.700 387.200,204.800 387.200 C 205.900 387.200,206.800 387.380,206.800 387.600 C 206.800 388.310,217.180 388.118,217.454 387.402 C 217.581 387.074,217.845 386.904,218.042 387.026 C 218.239 387.148,218.400 387.046,218.400 386.800 C 218.400 386.554,218.565 386.455,218.768 386.580 C 218.970 386.705,219.407 386.536,219.739 386.204 C 220.071 385.872,220.549 385.600,220.800 385.600 C 221.402 385.600,221.957 385.008,223.614 382.600 L 224.990 380.600 224.997 200.223 C 225.003 51.832,224.911 19.665,224.478 18.830 C 223.529 17.002,221.412 14.425,220.847 14.412 C 220.543 14.406,220.003 14.083,219.647 13.696 C 218.288 12.218,206.117 10.971,207.000 12.400 M168.198 138.399 C 170.178 139.440,171.272 140.374,173.131 142.608 C 175.297 145.211,175.668 150.367,174.424 160.600 C 173.847 165.352,173.295 170.481,172.854 175.200 C 172.639 177.510,172.179 181.740,171.833 184.600 C 171.488 187.460,171.019 191.690,170.792 194.000 C 170.565 196.310,170.199 199.730,169.978 201.600 C 169.409 206.420,168.828 211.618,168.392 215.800 C 168.186 217.780,167.827 221.020,167.596 223.000 C 167.365 224.980,166.991 228.310,166.765 230.400 C 165.993 237.545,165.651 240.602,165.198 244.400 C 164.949 246.490,164.581 249.730,164.380 251.600 C 163.490 259.867,163.231 261.921,162.843 263.800 C 162.616 264.900,162.313 266.385,162.170 267.100 C 162.026 267.815,161.750 268.400,161.555 268.400 C 161.360 268.400,161.200 268.578,161.200 268.795 C 161.200 270.118,156.416 274.385,154.924 274.395 C 154.442 274.398,153.936 274.580,153.800 274.800 C 152.678 276.616,144.527 274.814,141.600 272.103 C 140.830 271.390,140.065 270.805,139.900 270.803 C 139.735 270.802,139.600 270.545,139.600 270.233 C 139.600 269.922,139.465 269.607,139.300 269.533 C 139.135 269.460,138.575 268.500,138.056 267.400 C 137.537 266.300,136.952 265.087,136.756 264.705 C 136.560 264.323,136.400 263.736,136.400 263.400 C 136.400 263.064,136.241 262.477,136.047 262.095 C 135.396 260.815,134.412 258.364,133.600 256.000 C 133.336 255.230,132.970 254.240,132.788 253.800 C 132.606 253.360,131.616 250.660,130.587 247.800 C 128.597 242.264,128.115 241.009,127.553 239.905 C 127.359 239.523,127.200 238.848,127.200 238.405 C 127.200 237.962,127.020 237.600,126.800 237.600 C 126.580 237.600,126.400 237.238,126.400 236.795 C 126.400 236.352,126.220 235.632,126.000 235.195 C 125.780 234.758,125.420 234.042,125.200 233.605 C 124.980 233.168,124.800 232.448,124.800 232.005 C 124.800 231.562,124.620 231.200,124.400 231.200 C 124.180 231.200,124.000 230.750,124.000 230.200 C 124.000 229.650,123.820 229.200,123.600 229.200 C 123.380 229.200,123.200 228.838,123.200 228.395 C 123.200 227.952,122.992 227.187,122.738 226.695 C 121.742 224.769,121.600 224.383,121.600 223.605 C 121.600 223.162,121.420 222.800,121.200 222.800 C 120.980 222.800,120.800 222.438,120.800 221.995 C 120.800 221.552,120.641 220.877,120.447 220.495 C 119.964 219.545,119.435 218.229,118.400 215.400 C 117.917 214.080,117.377 212.640,117.199 212.200 C 116.663 210.873,114.541 205.165,113.592 202.500 C 112.708 200.017,112.000 199.263,112.000 200.805 C 112.000 201.583,111.858 201.969,110.862 203.895 C 110.608 204.387,110.400 205.152,110.400 205.595 C 110.400 206.038,110.220 206.400,110.000 206.400 C 109.780 206.400,109.600 206.850,109.600 207.400 C 109.600 207.950,109.420 208.400,109.200 208.400 C 108.980 208.400,108.800 208.762,108.800 209.205 C 108.800 209.648,108.641 210.323,108.447 210.705 C 107.979 211.625,107.374 213.124,106.875 214.600 C 106.652 215.260,105.801 217.600,104.984 219.800 C 104.167 222.000,103.144 224.790,102.710 226.000 C 102.277 227.210,101.735 228.650,101.507 229.200 C 100.917 230.623,100.549 231.600,100.000 233.200 C 99.188 235.564,98.204 238.015,97.553 239.295 C 97.359 239.677,97.200 240.352,97.200 240.795 C 97.200 241.238,97.020 241.600,96.800 241.600 C 96.580 241.600,96.400 241.962,96.400 242.405 C 96.400 242.848,96.241 243.523,96.047 243.905 C 95.852 244.287,95.471 245.140,95.200 245.800 C 94.929 246.460,94.548 247.313,94.353 247.695 C 94.159 248.077,94.000 248.752,94.000 249.195 C 94.000 249.638,93.820 250.000,93.600 250.000 C 93.380 250.000,93.200 250.362,93.200 250.805 C 93.200 251.248,93.020 251.968,92.800 252.405 C 92.580 252.842,92.220 253.558,92.000 253.995 C 91.780 254.432,91.600 255.152,91.600 255.595 C 91.600 256.038,91.420 256.400,91.200 256.400 C 90.980 256.400,90.800 256.762,90.800 257.205 C 90.800 257.648,90.627 258.323,90.415 258.705 C 90.203 259.087,89.378 261.200,88.581 263.400 C 86.353 269.557,84.267 272.458,81.000 273.947 C 80.340 274.247,79.487 274.652,79.105 274.847 C 78.082 275.367,72.481 275.276,70.828 274.713 C 65.206 272.794,62.820 269.055,61.568 260.200 C 61.350 258.660,60.990 256.140,60.768 254.600 C 60.546 253.060,60.268 250.630,60.150 249.200 C 60.032 247.770,59.770 246.429,59.568 246.220 C 59.365 246.011,59.200 244.807,59.200 243.544 C 59.200 242.281,59.020 241.136,58.800 241.000 C 58.580 240.864,58.400 239.604,58.400 238.200 C 58.400 236.796,58.220 235.536,58.000 235.400 C 57.780 235.264,57.600 234.029,57.600 232.656 C 57.600 231.283,57.435 229.989,57.234 229.780 C 57.032 229.571,56.769 228.320,56.649 227.000 C 56.444 224.745,56.129 222.337,55.193 215.900 C 54.977 214.415,54.625 211.985,54.411 210.500 C 54.196 209.015,53.832 206.540,53.600 205.000 C 52.980 200.875,52.474 197.378,52.010 194.000 C 51.783 192.350,51.431 189.920,51.227 188.600 C 49.434 177.012,49.312 172.420,50.718 169.482 C 54.564 161.449,66.176 159.678,71.955 166.243 C 74.557 169.200,75.367 171.511,75.865 177.400 C 75.976 178.720,76.232 179.971,76.434 180.180 C 76.635 180.389,76.800 181.683,76.800 183.056 C 76.800 184.429,76.980 185.664,77.200 185.800 C 77.420 185.936,77.600 187.171,77.600 188.544 C 77.600 189.917,77.765 191.211,77.966 191.420 C 78.168 191.629,78.431 192.880,78.551 194.200 C 78.671 195.520,78.952 197.860,79.177 199.400 C 79.401 200.940,79.739 203.460,79.926 205.000 C 80.525 209.909,80.851 210.102,82.130 206.302 C 82.741 204.486,83.388 202.640,83.567 202.200 C 84.402 200.148,84.922 198.944,85.247 198.305 C 85.441 197.923,85.600 197.248,85.600 196.805 C 85.600 196.362,85.780 196.000,86.000 196.000 C 86.220 196.000,86.400 195.638,86.400 195.195 C 86.400 194.752,86.559 194.077,86.753 193.695 C 86.948 193.313,87.329 192.460,87.600 191.800 C 87.871 191.140,88.252 190.287,88.447 189.905 C 88.641 189.523,88.800 188.936,88.800 188.600 C 88.800 188.264,88.959 187.677,89.153 187.295 C 89.348 186.913,89.729 186.060,90.000 185.400 C 90.271 184.740,90.652 183.887,90.847 183.505 C 91.041 183.123,91.200 182.448,91.200 182.005 C 91.200 181.562,91.380 181.200,91.600 181.200 C 91.820 181.200,92.000 180.761,92.000 180.224 C 92.000 179.687,92.180 179.136,92.400 179.000 C 92.620 178.864,92.800 178.403,92.800 177.976 C 92.800 177.549,92.980 177.200,93.200 177.200 C 93.420 177.200,93.600 176.660,93.600 176.000 C 93.600 175.340,93.780 174.800,94.000 174.800 C 94.220 174.800,94.400 174.438,94.400 173.995 C 94.400 173.552,94.559 172.877,94.753 172.495 C 95.301 171.417,95.843 170.055,97.016 166.800 C 101.104 155.463,102.345 153.499,106.600 151.633 C 107.260 151.344,108.113 150.948,108.495 150.753 C 109.410 150.287,115.817 150.298,116.705 150.766 C 117.087 150.968,118.036 151.408,118.814 151.744 C 120.459 152.456,123.600 155.400,123.600 156.231 C 123.600 156.544,123.735 156.801,123.900 156.803 C 124.261 156.807,125.200 158.745,125.200 159.485 C 125.200 159.774,125.359 160.323,125.553 160.705 C 125.748 161.087,126.108 161.895,126.353 162.500 C 126.599 163.105,127.001 164.095,127.247 164.700 C 127.492 165.305,127.852 166.113,128.047 166.495 C 128.241 166.877,128.400 167.552,128.400 167.995 C 128.400 168.438,128.580 168.800,128.800 168.800 C 129.020 168.800,129.200 169.162,129.200 169.605 C 129.200 170.048,129.359 170.723,129.553 171.105 C 129.748 171.487,130.129 172.340,130.400 173.000 C 130.671 173.660,131.052 174.513,131.247 174.895 C 131.441 175.277,131.600 175.864,131.600 176.200 C 131.600 176.536,131.759 177.123,131.953 177.505 C 132.829 179.226,133.682 181.455,137.811 192.800 C 140.153 199.234,140.652 200.525,141.247 201.695 C 141.441 202.077,141.600 202.741,141.600 203.171 C 141.600 203.601,141.780 204.064,142.000 204.200 C 142.220 204.336,142.400 204.777,142.400 205.181 C 142.400 205.584,142.657 206.013,142.972 206.134 C 143.433 206.311,143.585 205.674,143.751 202.877 C 143.864 200.965,144.155 197.690,144.398 195.600 C 145.141 189.191,145.530 185.579,145.946 181.200 C 146.165 178.890,146.542 175.380,146.784 173.400 C 147.025 171.420,147.493 167.190,147.823 164.000 C 148.998 152.650,149.189 150.973,149.570 148.708 C 150.264 144.578,154.155 138.800,156.241 138.800 C 156.548 138.800,156.800 138.620,156.800 138.400 C 156.800 138.180,157.149 138.000,157.576 138.000 C 158.003 138.000,158.464 137.820,158.600 137.600 C 159.220 136.597,165.817 137.147,168.198 138.399 " stroke="none" fill="#1464c3" fill-rule="evenodd"></path>
        <path id="path3" d="M224.988 87.400 C 224.988 101.040,225.038 106.678,225.100 99.929 C 225.161 93.180,225.161 82.020,225.100 75.129 C 225.038 68.238,224.988 73.760,224.988 87.400 M338.433 112.547 C 338.525 112.628,339.320 112.814,340.200 112.962 C 341.346 113.154,341.630 113.114,341.200 112.821 C 340.660 112.453,338.032 112.193,338.433 112.547 M344.646 114.886 C 346.186 116.068,347.518 117.558,348.234 118.900 C 349.145 120.609,349.316 120.195,348.422 118.443 C 347.652 116.934,344.649 114.000,343.874 114.000 C 343.664 114.000,344.011 114.399,344.646 114.886 M349.256 120.800 C 349.256 121.130,349.411 121.760,349.600 122.200 C 349.817 122.704,349.944 122.778,349.944 122.400 C 349.944 122.070,349.789 121.440,349.600 121.000 C 349.383 120.496,349.256 120.422,349.256 120.800 M349.389 128.449 C 349.029 130.087,347.722 132.327,346.322 133.703 C 345.705 134.310,345.200 134.929,345.200 135.078 C 345.200 135.649,347.714 132.926,348.596 131.400 C 349.480 129.873,350.286 127.200,349.864 127.200 C 349.754 127.200,349.540 127.762,349.389 128.449 M343.200 136.000 C 342.430 136.422,342.070 136.770,342.400 136.774 C 342.730 136.779,343.450 136.430,344.000 136.000 C 345.257 135.017,344.996 135.017,343.200 136.000 M340.000 137.200 C 339.176 137.464,339.141 137.526,339.800 137.554 C 340.240 137.573,340.870 137.413,341.200 137.200 C 341.901 136.747,341.414 136.747,340.000 137.200 M159.000 138.000 L 158.200 138.344 159.000 138.344 C 159.440 138.344,160.160 138.189,160.600 138.000 L 161.400 137.656 160.600 137.656 C 160.160 137.656,159.440 137.811,159.000 138.000 M164.600 138.000 C 165.796 138.514,166.795 138.514,166.000 138.000 C 165.670 137.787,165.040 137.622,164.600 137.634 L 163.800 137.656 164.600 138.000 M224.978 150.000 C 224.978 156.710,225.032 159.455,225.099 156.100 C 225.166 152.745,225.166 147.255,225.099 143.900 C 225.032 140.545,224.978 143.290,224.978 150.000 M154.077 141.059 L 152.200 142.918 154.200 141.191 C 155.300 140.241,156.275 139.404,156.367 139.332 C 156.458 139.259,156.403 139.200,156.243 139.200 C 156.084 139.200,155.109 140.037,154.077 141.059 M171.199 141.401 C 171.968 142.280,172.755 143.180,172.948 143.400 C 173.140 143.620,173.111 143.440,172.883 143.000 C 172.655 142.560,171.868 141.660,171.134 141.001 L 169.800 139.802 171.199 141.401 M174.056 146.000 C 174.056 146.330,174.211 146.960,174.400 147.400 C 174.617 147.904,174.744 147.978,174.744 147.600 C 174.744 147.270,174.589 146.640,174.400 146.200 C 174.183 145.696,174.056 145.622,174.056 146.000 M150.200 147.600 C 150.048 148.291,150.007 148.941,150.109 149.042 C 150.211 149.144,150.409 148.653,150.550 147.950 C 150.883 146.283,150.560 145.960,150.200 147.600 M174.893 150.000 C 174.893 150.770,174.975 151.085,175.076 150.700 C 175.176 150.315,175.176 149.685,175.076 149.300 C 174.975 148.915,174.893 149.230,174.893 150.000 M109.515 151.128 C 109.138 151.278,110.544 151.400,112.639 151.400 C 114.733 151.400,116.032 151.283,115.524 151.140 C 114.295 150.794,110.376 150.786,109.515 151.128 M149.387 154.187 C 149.231 155.644,149.189 156.923,149.295 157.028 C 149.401 157.134,149.610 156.023,149.760 154.560 C 149.910 153.097,149.951 151.818,149.852 151.718 C 149.752 151.619,149.543 152.729,149.387 154.187 M174.259 154.288 C 174.121 155.119,174.031 156.610,174.058 157.600 C 174.092 158.884,174.202 158.488,174.441 156.221 C 174.793 152.878,174.684 151.716,174.259 154.288 M103.545 154.155 C 102.965 154.666,102.268 155.515,101.996 156.042 C 101.724 156.569,101.660 156.820,101.852 156.600 C 102.045 156.380,102.822 155.525,103.580 154.700 C 105.134 153.008,105.118 152.768,103.545 154.155 M122.587 155.980 C 123.364 157.135,124.000 158.272,124.000 158.507 C 124.000 158.741,124.112 158.821,124.249 158.685 C 124.549 158.385,122.704 155.150,121.810 154.408 C 121.460 154.118,121.809 154.825,122.587 155.980 M148.686 160.200 C 148.533 161.080,148.429 162.430,148.453 163.200 C 148.485 164.201,148.599 163.917,148.853 162.200 C 149.256 159.479,149.111 157.746,148.686 160.200 M173.468 161.359 C 173.320 162.433,173.223 163.962,173.252 164.756 C 173.280 165.550,173.460 164.850,173.651 163.200 C 174.040 159.848,173.886 158.307,173.468 161.359 M124.845 160.400 C 124.853 160.730,125.206 161.720,125.629 162.600 C 126.052 163.480,126.286 163.762,126.149 163.226 C 125.773 161.761,124.829 159.714,124.845 160.400 M99.058 162.504 C 98.128 164.940,98.280 165.404,99.236 163.047 C 99.672 161.973,99.958 161.024,99.872 160.938 C 99.786 160.852,99.420 161.557,99.058 162.504 M59.200 162.942 C 57.546 163.483,55.997 164.370,56.676 164.388 C 56.938 164.395,57.245 164.251,57.358 164.068 C 57.586 163.699,61.040 162.867,63.200 162.661 C 64.119 162.574,63.913 162.520,62.600 162.506 C 61.500 162.494,59.970 162.690,59.200 162.942 M338.433 162.547 C 338.525 162.628,339.320 162.814,340.200 162.962 C 341.346 163.154,341.630 163.114,341.200 162.821 C 340.660 162.453,338.032 162.193,338.433 162.547 M65.200 163.078 C 65.530 163.197,66.565 163.622,67.500 164.024 C 68.435 164.426,69.200 164.666,69.200 164.558 C 69.200 164.247,65.866 162.815,65.200 162.840 C 64.667 162.861,64.667 162.887,65.200 163.078 M344.646 164.886 C 346.186 166.068,347.518 167.558,348.234 168.900 C 349.145 170.609,349.316 170.195,348.422 168.443 C 347.652 166.934,344.649 164.000,343.874 164.000 C 343.664 164.000,344.011 164.399,344.646 164.886 M53.526 166.399 C 52.467 167.498,51.611 168.623,51.624 168.899 C 51.636 169.174,51.861 169.040,52.124 168.600 C 52.386 168.160,53.368 167.035,54.307 166.100 C 55.246 165.165,55.888 164.400,55.733 164.400 C 55.579 164.400,54.586 165.299,53.526 166.399 M70.981 166.329 C 71.851 167.248,72.617 168.000,72.685 168.000 C 73.046 168.000,71.732 166.469,70.651 165.629 C 69.603 164.816,69.656 164.929,70.981 166.329 M148.093 166.800 C 148.093 167.570,148.175 167.885,148.276 167.500 C 148.376 167.115,148.376 166.485,148.276 166.100 C 148.175 165.715,148.093 166.030,148.093 166.800 M96.899 168.313 C 95.685 171.443,95.784 172.002,97.023 169.018 C 97.567 167.707,97.964 166.491,97.905 166.315 C 97.846 166.139,97.394 167.038,96.899 168.313 M73.325 169.400 C 73.634 170.060,74.012 171.116,74.163 171.747 C 74.315 172.378,74.515 172.818,74.609 172.725 C 74.899 172.434,74.039 169.802,73.384 168.982 C 72.812 168.264,72.807 168.298,73.325 169.400 M147.720 170.400 C 147.720 171.610,147.795 172.105,147.887 171.500 C 147.978 170.895,147.978 169.905,147.887 169.300 C 147.795 168.695,147.720 169.190,147.720 170.400 M172.520 171.600 C 172.520 172.810,172.595 173.305,172.687 172.700 C 172.778 172.095,172.778 171.105,172.687 170.500 C 172.595 169.895,172.520 170.390,172.520 171.600 M349.256 170.800 C 349.256 171.130,349.411 171.760,349.600 172.200 C 349.817 172.704,349.944 172.778,349.944 172.400 C 349.944 172.070,349.789 171.440,349.600 171.000 C 349.383 170.496,349.256 170.422,349.256 170.800 M50.243 172.233 C 49.937 173.031,50.010 177.410,50.356 179.000 C 50.499 179.660,50.613 178.265,50.608 175.901 C 50.599 171.261,50.603 171.295,50.243 172.233 M94.499 174.713 C 93.285 177.843,93.384 178.402,94.623 175.418 C 95.167 174.107,95.564 172.891,95.505 172.715 C 95.446 172.539,94.994 173.438,94.499 174.713 M74.828 175.033 C 74.844 175.895,75.009 176.960,75.196 177.400 C 75.408 177.898,75.451 177.369,75.312 176.000 C 75.044 173.365,74.789 172.857,74.828 175.033 M172.093 175.200 C 172.093 175.970,172.175 176.285,172.276 175.900 C 172.376 175.515,172.376 174.885,172.276 174.500 C 172.175 174.115,172.093 174.430,172.093 175.200 M146.920 177.600 C 146.920 178.810,146.995 179.305,147.087 178.700 C 147.178 178.095,147.178 177.105,147.087 176.500 C 146.995 175.895,146.920 176.390,146.920 177.600 M171.720 178.800 C 171.720 180.010,171.795 180.505,171.887 179.900 C 171.978 179.295,171.978 178.305,171.887 177.700 C 171.795 177.095,171.720 177.590,171.720 178.800 M349.389 178.449 C 349.029 180.087,347.722 182.327,346.322 183.703 C 345.705 184.310,345.200 184.929,345.200 185.078 C 345.200 185.649,347.714 182.926,348.596 181.400 C 349.480 179.873,350.286 177.200,349.864 177.200 C 349.754 177.200,349.540 177.762,349.389 178.449 M75.640 180.433 C 75.662 181.185,75.830 182.250,76.013 182.800 C 76.229 183.446,76.266 183.020,76.119 181.600 C 75.859 179.083,75.581 178.407,75.640 180.433 M146.268 181.759 C 146.120 182.833,146.023 184.362,146.052 185.156 C 146.080 185.950,146.260 185.250,146.451 183.600 C 146.840 180.248,146.686 178.707,146.268 181.759 M50.887 182.200 C 50.883 182.860,51.024 183.850,51.200 184.400 L 51.520 185.400 51.513 184.400 C 51.509 183.850,51.368 182.860,51.200 182.200 L 50.895 181.000 50.887 182.200 M170.914 185.800 C 170.917 186.900,170.995 187.303,171.087 186.695 C 171.179 186.086,171.177 185.186,171.082 184.695 C 170.987 184.203,170.911 184.700,170.914 185.800 M76.440 185.833 C 76.462 186.695,76.627 187.850,76.807 188.400 C 77.011 189.021,77.051 188.491,76.912 187.000 C 76.654 184.221,76.382 183.549,76.440 185.833 M343.200 186.000 C 342.430 186.422,342.070 186.770,342.400 186.774 C 342.730 186.779,343.450 186.430,344.000 186.000 C 345.257 185.017,344.996 185.017,343.200 186.000 M134.412 186.000 C 134.412 186.330,134.587 186.870,134.800 187.200 C 135.145 187.733,135.188 187.733,135.188 187.200 C 135.188 186.870,135.013 186.330,134.800 186.000 C 134.455 185.467,134.412 185.467,134.412 186.000 M51.695 187.800 C 51.695 188.460,51.832 189.540,52.000 190.200 L 52.305 191.400 52.305 190.200 C 52.305 189.540,52.168 188.460,52.000 187.800 L 51.695 186.600 51.695 187.800 M340.000 187.200 C 339.176 187.464,339.141 187.526,339.800 187.554 C 340.240 187.573,340.870 187.413,341.200 187.200 C 341.901 186.747,341.414 186.747,340.000 187.200 M170.501 189.400 C 170.505 190.280,170.587 190.593,170.683 190.095 C 170.779 189.598,170.775 188.878,170.675 188.495 C 170.575 188.113,170.496 188.520,170.501 189.400 M224.978 200.000 C 224.978 206.710,225.032 209.455,225.099 206.100 C 225.166 202.745,225.166 197.255,225.099 193.900 C 225.032 190.545,224.978 193.290,224.978 200.000 M145.268 191.600 C 145.226 192.590,145.106 194.120,145.002 195.000 L 144.812 196.600 145.222 195.000 C 145.448 194.120,145.568 192.590,145.488 191.600 L 145.344 189.800 145.268 191.600 M77.228 192.033 C 77.244 192.785,77.420 193.760,77.620 194.200 C 77.865 194.739,77.905 194.346,77.741 193.000 C 77.451 190.619,77.189 190.124,77.228 192.033 M169.840 194.640 C 169.690 196.103,169.649 197.382,169.748 197.482 C 169.848 197.581,170.057 196.471,170.213 195.013 C 170.369 193.556,170.411 192.277,170.305 192.172 C 170.199 192.066,169.990 193.177,169.840 194.640 M52.487 193.600 C 52.491 194.150,52.632 195.140,52.800 195.800 L 53.105 197.000 53.113 195.800 C 53.117 195.140,52.976 194.150,52.800 193.600 L 52.480 192.600 52.487 193.600 M137.858 195.198 C 138.000 195.747,138.450 196.917,138.859 197.798 C 139.267 198.679,139.485 198.951,139.342 198.402 C 139.200 197.853,138.750 196.683,138.341 195.802 C 137.933 194.921,137.715 194.649,137.858 195.198 M78.040 197.233 C 78.062 197.985,78.230 199.050,78.413 199.600 C 78.629 200.246,78.666 199.820,78.519 198.400 C 78.259 195.883,77.981 195.207,78.040 197.233 M144.520 199.200 C 144.520 200.410,144.595 200.905,144.687 200.300 C 144.778 199.695,144.778 198.705,144.687 198.100 C 144.595 197.495,144.520 197.990,144.520 199.200 M53.287 199.000 C 53.291 199.440,53.432 200.340,53.600 201.000 C 53.874 202.078,53.906 202.098,53.913 201.200 C 53.917 200.650,53.776 199.750,53.600 199.200 C 53.349 198.416,53.281 198.373,53.287 199.000 M111.867 199.067 C 111.720 199.213,111.603 199.528,111.606 199.767 C 111.609 200.005,111.782 199.932,111.989 199.603 C 112.486 198.818,112.914 199.315,113.805 201.709 C 114.196 202.759,114.583 203.550,114.666 203.467 C 114.749 203.384,114.428 202.300,113.953 201.058 C 113.156 198.975,112.543 198.390,111.867 199.067 M169.058 201.559 C 168.907 203.186,168.861 204.595,168.957 204.690 C 169.206 204.939,169.721 199.763,169.510 199.130 C 169.413 198.839,169.210 199.932,169.058 201.559 M78.840 202.833 C 78.862 203.585,79.030 204.650,79.213 205.200 C 79.429 205.846,79.466 205.420,79.319 204.000 C 79.059 201.483,78.781 200.807,78.840 202.833 M54.087 204.800 C 54.091 205.350,54.232 206.340,54.400 207.000 L 54.705 208.200 54.713 207.000 C 54.717 206.340,54.576 205.350,54.400 204.800 L 54.080 203.800 54.087 204.800 M143.714 206.200 C 143.717 207.300,143.795 207.703,143.887 207.095 C 143.979 206.486,143.977 205.586,143.882 205.095 C 143.787 204.603,143.711 205.100,143.714 206.200 M109.058 206.504 C 108.128 208.940,108.280 209.404,109.236 207.047 C 109.672 205.973,109.958 205.024,109.872 204.938 C 109.786 204.852,109.420 205.557,109.058 206.504 M142.009 206.433 C 142.014 206.745,142.385 207.450,142.833 208.000 L 143.648 209.000 142.973 207.600 C 142.148 205.888,141.997 205.706,142.009 206.433 M168.215 209.415 C 168.061 210.654,168.017 211.750,168.119 211.852 C 168.220 211.954,168.430 211.023,168.585 209.785 C 168.739 208.546,168.783 207.450,168.681 207.348 C 168.580 207.246,168.370 208.177,168.215 209.415 M79.646 208.824 C 79.598 210.317,80.506 212.027,81.056 211.478 C 81.232 211.301,81.132 211.005,80.832 210.820 C 80.533 210.635,80.154 209.790,79.990 208.942 L 79.692 207.400 79.646 208.824 M55.072 211.400 C 55.199 212.500,55.369 213.475,55.451 213.567 C 55.732 213.882,55.520 211.399,55.180 210.400 C 54.951 209.726,54.916 210.051,55.072 211.400 M106.658 212.904 C 105.728 215.340,105.880 215.804,106.836 213.447 C 107.272 212.373,107.558 211.424,107.472 211.338 C 107.386 211.252,107.020 211.957,106.658 212.904 M338.433 212.547 C 338.525 212.628,339.320 212.814,340.200 212.962 C 341.346 213.154,341.630 213.114,341.200 212.821 C 340.660 212.453,338.032 212.193,338.433 212.547 M167.400 216.400 C 167.244 217.747,167.206 218.939,167.316 219.049 C 167.426 219.159,167.644 218.147,167.800 216.800 C 167.956 215.453,167.994 214.261,167.884 214.151 C 167.774 214.041,167.556 215.053,167.400 216.400 M344.646 214.886 C 346.186 216.068,347.518 217.558,348.234 218.900 C 349.145 220.609,349.316 220.195,348.422 218.443 C 347.652 216.934,344.649 214.000,343.874 214.000 C 343.664 214.000,344.011 214.399,344.646 214.886 M55.675 215.800 C 55.686 216.240,55.832 217.140,56.000 217.800 L 56.305 219.000 56.325 217.800 C 56.335 217.140,56.189 216.240,56.000 215.800 L 55.656 215.000 55.675 215.800 M349.256 220.800 C 349.256 221.130,349.411 221.760,349.600 222.200 C 349.817 222.704,349.944 222.778,349.944 222.400 C 349.944 222.070,349.789 221.440,349.600 221.000 C 349.383 220.496,349.256 220.422,349.256 220.800 M56.672 222.600 C 56.799 223.700,56.969 224.675,57.051 224.767 C 57.332 225.082,57.120 222.599,56.780 221.600 C 56.551 220.926,56.516 221.251,56.672 222.600 M166.587 223.787 C 166.431 225.244,166.393 226.526,166.503 226.636 C 166.613 226.746,166.831 225.644,166.987 224.187 C 167.143 222.729,167.180 221.447,167.070 221.337 C 166.960 221.227,166.743 222.329,166.587 223.787 M57.459 228.200 C 57.593 229.300,57.769 230.275,57.851 230.367 C 58.164 230.717,57.926 227.761,57.580 227.000 C 57.335 226.461,57.295 226.854,57.459 228.200 M349.389 228.449 C 349.029 230.087,347.722 232.327,346.322 233.703 C 345.705 234.310,345.200 234.929,345.200 235.078 C 345.200 235.649,347.714 232.926,348.596 231.400 C 349.480 229.873,350.286 227.200,349.864 227.200 C 349.754 227.200,349.540 227.762,349.389 228.449 M165.785 230.985 C 165.630 232.223,165.593 233.327,165.703 233.437 C 165.813 233.547,166.030 232.623,166.185 231.385 C 166.339 230.146,166.376 229.043,166.266 228.933 C 166.156 228.823,165.939 229.746,165.785 230.985 M58.277 233.800 C 58.400 235.120,58.568 236.275,58.650 236.367 C 58.918 236.664,58.715 233.834,58.380 232.600 C 58.165 231.811,58.130 232.222,58.277 233.800 M343.200 236.000 C 342.430 236.422,342.070 236.770,342.400 236.774 C 342.730 236.779,343.450 236.430,344.000 236.000 C 345.257 235.017,344.996 235.017,343.200 236.000 M164.985 238.185 C 164.830 239.423,164.793 240.527,164.903 240.637 C 165.013 240.747,165.230 239.823,165.385 238.585 C 165.539 237.346,165.576 236.243,165.466 236.133 C 165.356 236.023,165.139 236.946,164.985 238.185 M340.000 237.200 C 339.176 237.464,339.141 237.526,339.800 237.554 C 340.240 237.573,340.870 237.413,341.200 237.200 C 341.901 236.747,341.414 236.747,340.000 237.200 M59.081 239.600 C 59.206 240.810,59.374 241.875,59.454 241.967 C 59.735 242.287,59.517 239.391,59.187 238.400 C 58.971 237.754,58.934 238.180,59.081 239.600 M224.978 250.000 C 224.978 256.710,225.032 259.455,225.099 256.100 C 225.166 252.745,225.166 247.255,225.099 243.900 C 225.032 240.545,224.978 243.290,224.978 250.000 M128.845 241.600 C 128.853 241.930,129.206 242.920,129.629 243.800 C 130.052 244.680,130.286 244.962,130.149 244.426 C 129.773 242.961,128.829 240.914,128.845 241.600 M164.187 245.387 C 164.031 246.844,163.989 248.123,164.095 248.228 C 164.201 248.334,164.410 247.223,164.560 245.760 C 164.710 244.297,164.751 243.018,164.652 242.918 C 164.552 242.819,164.343 243.929,164.187 245.387 M59.888 245.200 C 60.011 246.410,60.177 247.475,60.256 247.567 C 60.553 247.911,60.330 244.567,60.004 243.800 C 59.792 243.302,59.749 243.831,59.888 245.200 M60.909 252.000 C 60.909 252.990,60.987 253.395,61.082 252.900 C 61.178 252.405,61.178 251.595,61.082 251.100 C 60.987 250.605,60.909 251.010,60.909 252.000 M163.469 251.556 C 163.321 252.295,163.221 253.463,163.247 254.150 C 163.279 255.012,163.405 254.725,163.655 253.223 C 164.053 250.821,163.897 249.417,163.469 251.556 M91.058 254.504 C 90.128 256.940,90.280 257.404,91.236 255.047 C 91.672 253.973,91.958 253.024,91.872 252.938 C 91.786 252.852,91.420 253.557,91.058 254.504 M61.709 257.600 C 61.709 258.590,61.787 258.995,61.882 258.500 C 61.978 258.005,61.978 257.195,61.882 256.700 C 61.787 256.205,61.709 256.610,61.709 257.600 M162.590 259.338 C 162.439 260.552,162.395 261.782,162.493 262.072 C 162.590 262.362,162.801 261.456,162.960 260.058 C 163.119 258.660,163.163 257.430,163.058 257.324 C 162.952 257.219,162.742 258.125,162.590 259.338 M88.450 261.450 C 87.973 262.696,87.650 263.784,87.733 263.866 C 87.815 263.949,88.273 262.996,88.750 261.750 C 89.227 260.504,89.550 259.416,89.467 259.334 C 89.385 259.251,88.927 260.204,88.450 261.450 M62.493 263.200 C 62.493 263.970,62.575 264.285,62.676 263.900 C 62.776 263.515,62.776 262.885,62.676 262.500 C 62.575 262.115,62.493 262.430,62.493 263.200 M338.433 262.547 C 338.525 262.628,339.320 262.814,340.200 262.962 C 341.346 263.154,341.630 263.114,341.200 262.821 C 340.660 262.453,338.032 262.193,338.433 262.547 M344.646 264.886 C 346.186 266.068,347.518 267.558,348.234 268.900 C 349.145 270.609,349.316 270.195,348.422 268.443 C 347.652 266.934,344.649 264.000,343.874 264.000 C 343.664 264.000,344.011 264.399,344.646 264.886 M161.867 264.667 C 161.720 264.813,161.611 265.308,161.625 265.767 C 161.649 266.533,161.682 266.523,162.034 265.642 C 162.426 264.663,162.344 264.189,161.867 264.667 M63.067 265.800 C 63.686 268.825,68.149 274.000,70.138 274.000 C 70.368 274.000,69.753 273.490,68.770 272.867 C 66.744 271.582,64.943 269.594,64.192 267.811 C 62.758 264.413,62.797 264.481,63.067 265.800 M138.029 266.310 C 138.276 267.020,138.642 267.703,138.842 267.826 C 139.042 267.950,138.991 267.544,138.727 266.925 C 138.021 265.265,137.506 264.812,138.029 266.310 M85.878 267.805 C 85.512 268.572,85.295 269.200,85.396 269.200 C 85.670 269.200,86.884 266.751,86.701 266.568 C 86.614 266.481,86.244 267.038,85.878 267.805 M160.582 268.305 C 160.152 269.115,159.080 270.492,158.200 271.366 C 156.823 272.733,156.775 272.833,157.855 272.082 C 159.063 271.242,161.882 267.348,161.534 267.001 C 161.441 266.908,161.013 267.494,160.582 268.305 M349.256 270.800 C 349.256 271.130,349.411 271.760,349.600 272.200 C 349.817 272.704,349.944 272.778,349.944 272.400 C 349.944 272.070,349.789 271.440,349.600 271.000 C 349.383 270.496,349.256 270.422,349.256 270.800 M82.962 271.655 C 82.543 272.126,81.615 272.758,80.900 273.061 C 79.344 273.719,79.145 274.153,80.663 273.576 C 81.788 273.148,84.675 270.800,84.076 270.800 C 83.882 270.800,83.381 271.185,82.962 271.655 M141.799 271.998 C 141.934 272.217,142.440 272.599,142.922 272.847 L 143.800 273.299 142.917 272.449 C 141.995 271.563,141.375 271.313,141.799 271.998 M144.800 273.800 C 145.350 274.114,146.070 274.371,146.400 274.370 C 146.730 274.369,146.394 274.106,145.654 273.784 C 143.951 273.045,143.494 273.053,144.800 273.800 M153.816 273.864 C 152.945 274.178,152.135 274.531,152.017 274.650 C 151.651 275.016,154.142 274.320,155.200 273.761 C 156.478 273.085,155.847 273.132,153.816 273.864 M70.833 274.144 C 70.925 274.223,71.540 274.408,72.200 274.556 C 73.076 274.752,73.238 274.715,72.800 274.418 C 72.260 274.053,70.432 273.798,70.833 274.144 M349.389 278.449 C 349.029 280.087,347.722 282.327,346.322 283.703 C 345.705 284.310,345.200 284.929,345.200 285.078 C 345.200 285.649,347.714 282.926,348.596 281.400 C 349.480 279.873,350.286 277.200,349.864 277.200 C 349.754 277.200,349.540 277.762,349.389 278.449 M343.200 286.000 C 342.430 286.422,342.070 286.770,342.400 286.774 C 342.730 286.779,343.450 286.430,344.000 286.000 C 345.257 285.017,344.996 285.017,343.200 286.000 M340.000 287.200 C 339.176 287.464,339.141 287.526,339.800 287.554 C 340.240 287.573,340.870 287.413,341.200 287.200 C 341.901 286.747,341.414 286.747,340.000 287.200 M224.988 312.600 C 224.988 326.240,225.038 331.878,225.100 325.129 C 225.161 318.380,225.161 307.220,225.100 300.329 C 225.038 293.438,224.988 298.960,224.988 312.600 " stroke="none" fill="#8db4dc" fill-rule="evenodd"></path>
        <path id="path4" d="M225.141 112.501 C 225.307 112.667,250.903 112.757,282.021 112.701 L 338.600 112.600 281.720 112.400 C 250.436 112.290,224.976 112.336,225.141 112.501 M341.146 113.560 C 342.326 113.976,343.804 114.696,344.430 115.159 C 345.834 116.197,346.471 116.283,345.154 115.257 C 343.723 114.142,341.966 113.326,340.400 113.049 C 339.418 112.876,339.640 113.028,341.146 113.560 M349.400 125.000 C 349.400 126.854,349.522 128.062,349.672 127.685 C 349.821 127.308,349.944 126.100,349.944 125.000 C 349.944 123.900,349.821 122.692,349.672 122.315 C 349.522 121.938,349.400 123.146,349.400 125.000 M347.437 131.800 C 347.076 132.350,346.937 132.800,347.127 132.800 C 347.316 132.800,347.677 132.350,347.927 131.800 C 348.178 131.250,348.317 130.800,348.237 130.800 C 348.157 130.800,347.797 131.250,347.437 131.800 M346.000 133.520 C 346.000 133.696,345.190 134.352,344.200 134.978 C 342.115 136.296,341.830 136.715,343.665 135.767 C 345.230 134.957,347.168 133.200,346.496 133.200 C 346.223 133.200,346.000 133.344,346.000 133.520 M340.200 136.800 C 339.696 137.017,339.622 137.144,340.000 137.144 C 340.330 137.144,340.960 136.989,341.400 136.800 C 341.904 136.583,341.978 136.456,341.600 136.456 C 341.270 136.456,340.640 136.611,340.200 136.800 M161.507 137.490 C 162.226 137.579,163.306 137.577,163.907 137.486 C 164.508 137.395,163.920 137.322,162.600 137.324 C 161.280 137.326,160.788 137.401,161.507 137.490 M225.062 137.500 C 224.894 137.771,264.259 137.770,318.800 137.496 C 330.130 137.439,313.716 137.349,282.324 137.296 C 250.932 137.243,225.164 137.335,225.062 137.500 M165.600 137.734 C 165.600 137.837,166.181 138.124,166.891 138.372 C 167.601 138.619,168.006 138.657,167.791 138.456 C 167.335 138.029,165.600 137.458,165.600 137.734 M156.700 138.629 C 155.149 139.470,155.325 139.761,156.900 138.959 C 158.408 138.193,158.675 137.994,158.167 138.016 C 157.965 138.025,157.305 138.301,156.700 138.629 M168.433 138.930 C 168.525 139.001,169.230 139.466,170.000 139.963 L 171.400 140.866 170.200 139.835 C 169.540 139.268,168.835 138.803,168.633 138.802 C 168.432 138.801,168.342 138.858,168.433 138.930 M153.541 141.100 C 151.905 142.826,150.799 144.396,150.801 144.989 C 150.802 145.215,151.180 144.770,151.641 144.000 C 152.101 143.230,153.127 141.925,153.920 141.100 C 154.713 140.275,155.272 139.600,155.162 139.600 C 155.052 139.600,154.323 140.275,153.541 141.100 M174.658 147.200 C 174.975 148.925,175.202 149.251,175.194 147.967 C 175.191 147.435,175.011 146.730,174.794 146.400 C 174.518 145.978,174.477 146.215,174.658 147.200 M149.400 151.600 C 149.245 152.728,149.202 153.736,149.306 153.839 C 149.409 153.942,149.616 153.100,149.767 151.967 C 149.917 150.834,149.959 149.826,149.861 149.728 C 149.763 149.629,149.555 150.472,149.400 151.600 M108.200 151.200 C 107.696 151.417,107.622 151.544,108.000 151.544 C 108.330 151.544,108.960 151.389,109.400 151.200 C 109.904 150.983,109.978 150.856,109.600 150.856 C 109.270 150.856,108.640 151.011,108.200 151.200 M114.833 150.944 C 114.925 151.023,115.540 151.208,116.200 151.356 C 117.076 151.552,117.238 151.515,116.800 151.218 C 116.260 150.853,114.432 150.598,114.833 150.944 M174.867 152.450 C 174.830 153.248,174.711 154.508,174.601 155.250 L 174.403 156.600 174.823 155.260 C 175.054 154.523,175.174 153.263,175.089 152.460 L 174.934 151.000 174.867 152.450 M104.343 153.300 C 103.579 154.015,103.324 154.313,103.777 153.962 C 104.230 153.612,105.045 153.027,105.589 152.662 C 106.133 152.298,106.388 152.000,106.156 152.000 C 105.923 152.000,105.108 152.585,104.343 153.300 M119.600 152.533 C 119.600 152.643,120.320 153.303,121.200 154.000 C 122.080 154.697,122.800 155.177,122.800 155.067 C 122.800 154.957,122.080 154.297,121.200 153.600 C 120.320 152.903,119.600 152.423,119.600 152.533 M148.600 158.400 C 148.445 159.528,148.408 160.541,148.518 160.651 C 148.628 160.761,148.845 159.928,149.000 158.800 C 149.155 157.672,149.192 156.659,149.082 156.549 C 148.972 156.439,148.755 157.272,148.600 158.400 M174.060 160.050 C 174.027 160.628,173.911 161.708,173.801 162.450 L 173.603 163.800 174.024 162.457 C 174.255 161.719,174.372 160.639,174.282 160.057 L 174.120 159.000 174.060 160.050 M225.141 162.501 C 225.307 162.667,250.903 162.757,282.021 162.701 L 338.600 162.600 281.720 162.400 C 250.436 162.290,224.976 162.336,225.141 162.501 M64.433 162.544 C 64.525 162.623,65.140 162.808,65.800 162.956 C 66.676 163.152,66.838 163.115,66.400 162.818 C 65.860 162.453,64.032 162.198,64.433 162.544 M341.146 163.560 C 342.326 163.976,343.804 164.696,344.430 165.159 C 345.834 166.197,346.471 166.283,345.154 165.257 C 343.723 164.142,341.966 163.326,340.400 163.049 C 339.418 162.876,339.640 163.028,341.146 163.560 M69.000 164.257 C 71.037 166.064,71.787 166.591,71.002 165.663 C 70.566 165.148,69.847 164.541,69.404 164.314 C 68.962 164.087,68.780 164.062,69.000 164.257 M53.375 166.100 L 52.200 167.400 53.500 166.225 C 54.712 165.130,54.984 164.800,54.675 164.800 C 54.606 164.800,54.021 165.385,53.375 166.100 M147.693 167.200 C 147.693 167.970,147.775 168.285,147.876 167.900 C 147.976 167.515,147.976 166.885,147.876 166.500 C 147.775 166.115,147.693 166.430,147.693 167.200 M173.070 168.157 C 172.911 169.453,172.861 170.594,172.960 170.693 C 173.226 170.959,173.703 167.418,173.519 166.547 C 173.432 166.136,173.230 166.860,173.070 168.157 M74.644 172.200 C 74.973 173.671,75.202 173.990,75.194 172.967 C 75.191 172.545,75.005 171.930,74.782 171.600 C 74.485 171.162,74.448 171.324,74.644 172.200 M147.082 172.350 C 146.927 173.093,146.820 174.173,146.844 174.750 C 146.873 175.442,147.010 175.187,147.247 174.000 C 147.445 173.010,147.552 171.930,147.485 171.600 C 147.419 171.270,147.238 171.608,147.082 172.350 M349.400 175.000 C 349.400 176.854,349.522 178.062,349.672 177.685 C 349.821 177.308,349.944 176.100,349.944 175.000 C 349.944 173.900,349.821 172.692,349.672 172.315 C 349.522 171.938,349.400 173.146,349.400 175.000 M130.229 174.000 C 130.376 174.550,130.664 175.270,130.867 175.600 C 131.125 176.017,131.157 175.895,130.971 175.200 C 130.824 174.650,130.536 173.930,130.333 173.600 C 130.075 173.183,130.043 173.305,130.229 174.000 M172.460 174.450 C 172.427 175.028,172.311 176.108,172.201 176.850 L 172.003 178.200 172.424 176.857 C 172.655 176.119,172.772 175.039,172.682 174.457 L 172.520 173.400 172.460 174.450 M75.459 177.000 C 75.593 178.100,75.769 179.075,75.851 179.167 C 76.164 179.517,75.926 176.561,75.580 175.800 C 75.335 175.261,75.295 175.654,75.459 177.000 M146.269 179.556 C 146.121 180.295,146.020 181.283,146.044 181.750 C 146.068 182.218,146.247 181.790,146.442 180.800 C 146.637 179.810,146.738 178.823,146.667 178.606 C 146.596 178.390,146.417 178.817,146.269 179.556 M76.273 182.400 C 76.404 183.390,76.576 184.275,76.656 184.367 C 76.957 184.714,76.728 182.164,76.390 181.400 C 76.153 180.866,76.114 181.198,76.273 182.400 M171.446 182.747 C 171.289 183.927,171.246 184.979,171.350 185.083 C 171.617 185.350,172.122 181.764,171.907 181.125 C 171.811 180.836,171.603 181.566,171.446 182.747 M347.437 181.800 C 347.076 182.350,346.937 182.800,347.127 182.800 C 347.316 182.800,347.677 182.350,347.927 181.800 C 348.178 181.250,348.317 180.800,348.237 180.800 C 348.157 180.800,347.797 181.250,347.437 181.800 M346.000 183.520 C 346.000 183.696,345.190 184.352,344.200 184.978 C 342.115 186.296,341.830 186.715,343.665 185.767 C 345.230 184.957,347.168 183.200,346.496 183.200 C 346.223 183.200,346.000 183.344,346.000 183.520 M51.072 185.400 C 51.199 186.500,51.369 187.475,51.451 187.567 C 51.732 187.882,51.520 185.399,51.180 184.400 C 50.951 183.726,50.916 184.051,51.072 185.400 M145.482 186.750 C 145.327 187.493,145.220 188.572,145.244 189.150 C 145.273 189.842,145.410 189.587,145.647 188.400 C 145.845 187.410,145.952 186.330,145.885 186.000 C 145.819 185.670,145.638 186.008,145.482 186.750 M77.088 188.400 C 77.211 189.610,77.377 190.675,77.456 190.767 C 77.753 191.111,77.530 187.767,77.204 187.000 C 76.992 186.502,76.949 187.031,77.088 188.400 M340.200 186.800 C 339.696 187.017,339.622 187.144,340.000 187.144 C 340.330 187.144,340.960 186.989,341.400 186.800 C 341.904 186.583,341.978 186.456,341.600 186.456 C 341.270 186.456,340.640 186.611,340.200 186.800 M225.062 187.500 C 224.894 187.771,264.259 187.770,318.800 187.496 C 330.130 187.439,313.716 187.349,282.324 187.296 C 250.932 187.243,225.164 187.335,225.062 187.500 M170.901 189.000 C 170.905 189.880,170.987 190.193,171.083 189.695 C 171.179 189.198,171.175 188.478,171.075 188.095 C 170.975 187.713,170.896 188.120,170.901 189.000 M52.101 192.600 C 52.105 193.480,52.187 193.793,52.283 193.295 C 52.379 192.798,52.375 192.078,52.275 191.695 C 52.175 191.313,52.096 191.720,52.101 192.600 M77.882 193.800 C 78.009 194.900,78.177 195.875,78.256 195.967 C 78.555 196.314,78.328 193.364,77.997 192.600 C 77.774 192.085,77.733 192.513,77.882 193.800 M86.677 194.677 C 86.300 195.693,86.058 196.591,86.138 196.672 C 86.219 196.752,86.600 195.993,86.985 194.985 C 87.370 193.976,87.612 193.079,87.523 192.990 C 87.435 192.901,87.054 193.660,86.677 194.677 M144.653 194.036 C 144.514 194.731,144.421 195.773,144.447 196.350 C 144.472 196.928,144.655 196.427,144.852 195.239 C 145.237 192.921,145.073 191.934,144.653 194.036 M169.833 197.233 C 169.683 198.366,169.641 199.374,169.739 199.472 C 169.837 199.571,170.045 198.728,170.200 197.600 C 170.355 196.472,170.398 195.464,170.294 195.361 C 170.191 195.258,169.984 196.100,169.833 197.233 M52.901 198.200 C 52.905 199.080,52.987 199.393,53.083 198.895 C 53.179 198.398,53.175 197.678,53.075 197.295 C 52.975 196.913,52.896 197.320,52.901 198.200 M78.681 199.200 C 78.806 200.410,78.974 201.475,79.054 201.567 C 79.335 201.887,79.117 198.991,78.787 198.000 C 78.571 197.354,78.534 197.780,78.681 199.200 M111.637 200.465 C 111.395 201.161,111.278 201.812,111.379 201.912 C 111.479 202.012,111.679 201.623,111.824 201.047 C 111.968 200.471,112.348 200.000,112.667 200.000 C 112.986 200.000,113.136 199.820,113.000 199.600 C 112.555 198.880,112.086 199.178,111.637 200.465 M53.477 202.200 C 53.600 203.520,53.768 204.675,53.850 204.767 C 54.118 205.064,53.915 202.234,53.580 201.000 C 53.365 200.211,53.330 200.622,53.477 202.200 M143.856 200.884 C 143.721 201.388,143.630 202.430,143.652 203.200 C 143.686 204.334,143.762 204.189,144.052 202.439 C 144.420 200.225,144.296 199.243,143.856 200.884 M169.033 204.433 C 168.883 205.566,168.841 206.574,168.939 206.672 C 169.037 206.771,169.245 205.928,169.400 204.800 C 169.555 203.672,169.598 202.664,169.494 202.561 C 169.391 202.458,169.184 203.300,169.033 204.433 M79.701 206.200 C 79.705 207.080,79.787 207.393,79.883 206.895 C 79.979 206.398,79.975 205.678,79.875 205.295 C 79.775 204.913,79.696 205.320,79.701 206.200 M142.856 207.345 C 143.139 207.975,143.442 208.273,143.531 208.006 C 143.620 207.740,143.389 207.224,143.018 206.861 C 142.386 206.242,142.376 206.273,142.856 207.345 M54.440 209.433 C 54.462 210.295,54.627 211.450,54.807 212.000 C 55.011 212.621,55.051 212.091,54.912 210.600 C 54.654 207.821,54.382 207.149,54.440 209.433 M80.046 208.867 C 79.981 209.812,80.413 210.800,80.892 210.800 C 81.167 210.800,81.167 210.638,80.892 210.300 C 80.669 210.025,80.398 209.440,80.289 209.000 C 80.144 208.410,80.081 208.375,80.046 208.867 M168.200 212.000 C 168.044 213.347,168.001 214.534,168.105 214.638 C 168.209 214.742,168.419 213.722,168.571 212.371 C 168.724 211.021,168.767 209.834,168.667 209.733 C 168.566 209.633,168.356 210.653,168.200 212.000 M225.141 212.501 C 225.307 212.667,250.903 212.757,282.021 212.701 L 338.600 212.600 281.720 212.400 C 250.436 212.290,224.976 212.336,225.141 212.501 M341.146 213.560 C 342.326 213.976,343.804 214.696,344.430 215.159 C 345.834 216.197,346.471 216.283,345.154 215.257 C 343.723 214.142,341.966 213.326,340.400 213.049 C 339.418 212.876,339.640 213.028,341.146 213.560 M55.301 215.000 C 55.305 215.880,55.387 216.193,55.483 215.695 C 55.579 215.198,55.575 214.478,55.475 214.095 C 55.375 213.713,55.296 214.120,55.301 215.000 M119.051 216.374 C 119.427 217.839,120.371 219.886,120.355 219.200 C 120.347 218.870,119.994 217.880,119.571 217.000 C 119.148 216.120,118.914 215.838,119.051 216.374 M56.109 220.400 C 56.109 221.390,56.187 221.795,56.282 221.300 C 56.378 220.805,56.378 219.995,56.282 219.500 C 56.187 219.005,56.109 219.410,56.109 220.400 M167.301 220.600 C 167.305 221.480,167.387 221.793,167.483 221.295 C 167.579 220.798,167.575 220.078,167.475 219.695 C 167.375 219.313,167.296 219.720,167.301 220.600 M120.817 221.032 C 120.808 221.270,121.242 222.530,121.783 223.832 C 122.324 225.134,122.774 226.006,122.783 225.768 C 122.792 225.530,122.358 224.270,121.817 222.968 C 121.276 221.666,120.826 220.794,120.817 221.032 M349.400 225.000 C 349.400 226.854,349.522 228.062,349.672 227.685 C 349.821 227.308,349.944 226.100,349.944 225.000 C 349.944 223.900,349.821 222.692,349.672 222.315 C 349.522 221.938,349.400 223.146,349.400 225.000 M56.828 226.233 C 56.844 227.095,57.009 228.160,57.196 228.600 C 57.408 229.098,57.451 228.569,57.312 227.200 C 57.044 224.565,56.789 224.057,56.828 226.233 M166.509 228.400 C 166.509 229.390,166.587 229.795,166.682 229.300 C 166.778 228.805,166.778 227.995,166.682 227.500 C 166.587 227.005,166.509 227.410,166.509 228.400 M57.701 231.800 C 57.705 232.680,57.787 232.993,57.883 232.495 C 57.979 231.998,57.975 231.278,57.875 230.895 C 57.775 230.513,57.696 230.920,57.701 231.800 M347.437 231.800 C 347.076 232.350,346.937 232.800,347.127 232.800 C 347.316 232.800,347.677 232.350,347.927 231.800 C 348.178 231.250,348.317 230.800,348.237 230.800 C 348.157 230.800,347.797 231.250,347.437 231.800 M346.000 233.520 C 346.000 233.696,345.190 234.352,344.200 234.978 C 342.115 236.296,341.830 236.715,343.665 235.767 C 345.230 234.957,347.168 233.200,346.496 233.200 C 346.223 233.200,346.000 233.344,346.000 233.520 M165.714 235.400 C 165.717 236.500,165.795 236.903,165.887 236.295 C 165.979 235.686,165.977 234.786,165.882 234.295 C 165.787 233.803,165.711 234.300,165.714 235.400 M98.444 235.644 C 98.198 236.351,98.066 237.000,98.152 237.085 C 98.238 237.171,98.509 236.662,98.756 235.956 C 99.002 235.249,99.134 234.600,99.048 234.515 C 98.962 234.429,98.691 234.938,98.444 235.644 M58.428 237.633 C 58.444 238.385,58.612 239.360,58.803 239.800 C 59.026 240.315,59.067 239.887,58.918 238.600 C 58.644 236.222,58.389 235.719,58.428 237.633 M340.200 236.800 C 339.696 237.017,339.622 237.144,340.000 237.144 C 340.330 237.144,340.960 236.989,341.400 236.800 C 341.904 236.583,341.978 236.456,341.600 236.456 C 341.270 236.456,340.640 236.611,340.200 236.800 M225.062 237.500 C 224.894 237.771,264.259 237.770,318.800 237.496 C 330.130 237.439,313.716 237.349,282.324 237.296 C 250.932 237.243,225.164 237.335,225.062 237.500 M164.914 242.600 C 164.917 243.700,164.995 244.103,165.087 243.495 C 165.179 242.886,165.177 241.986,165.082 241.495 C 164.987 241.003,164.911 241.500,164.914 242.600 M59.228 243.233 C 59.244 243.985,59.420 244.960,59.620 245.400 C 59.865 245.939,59.905 245.546,59.741 244.200 C 59.451 241.819,59.189 241.324,59.228 243.233 M60.040 248.633 C 60.062 249.275,60.233 250.250,60.420 250.800 C 60.649 251.474,60.684 251.149,60.528 249.800 C 60.269 247.550,59.979 246.859,60.040 248.633 M164.114 250.200 C 164.117 251.300,164.195 251.703,164.287 251.095 C 164.379 250.486,164.377 249.586,164.282 249.095 C 164.187 248.603,164.111 249.100,164.114 250.200 M60.875 254.600 C 60.865 255.260,61.011 256.160,61.200 256.600 L 61.544 257.400 61.525 256.600 C 61.514 256.160,61.368 255.260,61.200 254.600 L 60.895 253.400 60.875 254.600 M163.320 257.200 C 163.320 258.410,163.395 258.905,163.487 258.300 C 163.578 257.695,163.578 256.705,163.487 256.100 C 163.395 255.495,163.320 255.990,163.320 257.200 M61.628 260.033 C 61.644 260.565,61.819 261.360,62.019 261.800 C 62.271 262.358,62.307 262.115,62.138 261.000 C 61.855 259.143,61.587 258.636,61.628 260.033 M225.141 262.501 C 225.307 262.667,250.903 262.757,282.021 262.701 L 338.600 262.600 281.720 262.400 C 250.436 262.290,224.976 262.336,225.141 262.501 M162.493 263.600 C 162.493 264.370,162.575 264.685,162.676 264.300 C 162.776 263.915,162.776 263.285,162.676 262.900 C 162.575 262.515,162.493 262.830,162.493 263.600 M341.146 263.560 C 342.326 263.976,343.804 264.696,344.430 265.159 C 345.834 266.197,346.471 266.283,345.154 265.257 C 343.723 264.142,341.966 263.326,340.400 263.049 C 339.418 262.876,339.640 263.028,341.146 263.560 M138.015 267.000 C 138.017 267.220,138.386 267.850,138.836 268.400 C 139.379 269.064,139.515 269.131,139.240 268.600 C 138.566 267.295,138.012 266.572,138.015 267.000 M85.014 269.835 C 84.641 270.404,84.405 270.938,84.489 271.022 C 84.573 271.107,84.958 270.641,85.344 269.988 C 86.206 268.528,85.948 268.409,85.014 269.835 M66.000 271.400 C 66.746 272.170,67.447 272.800,67.557 272.800 C 67.667 272.800,67.146 272.170,66.400 271.400 C 65.654 270.630,64.953 270.000,64.843 270.000 C 64.733 270.000,65.254 270.630,66.000 271.400 M349.400 275.000 C 349.400 276.854,349.522 278.062,349.672 277.685 C 349.821 277.308,349.944 276.100,349.944 275.000 C 349.944 273.900,349.821 272.692,349.672 272.315 C 349.522 271.938,349.400 273.146,349.400 275.000 M156.020 273.231 C 155.040 273.874,154.375 274.400,154.540 274.400 C 155.057 274.400,157.994 272.616,157.997 272.300 C 158.001 271.914,158.091 271.871,156.020 273.231 M72.138 274.894 C 72.392 275.056,73.770 275.188,75.200 275.188 C 76.630 275.188,78.008 275.056,78.262 274.894 C 78.516 274.732,77.138 274.600,75.200 274.600 C 73.262 274.600,71.884 274.732,72.138 274.894 M146.600 274.790 C 147.364 275.128,149.914 275.357,149.567 275.056 C 149.475 274.976,148.590 274.804,147.600 274.673 C 146.398 274.514,146.066 274.553,146.600 274.790 M152.000 274.800 C 151.176 275.064,151.141 275.126,151.800 275.154 C 152.240 275.173,152.870 275.013,153.200 274.800 C 153.901 274.347,153.414 274.347,152.000 274.800 M347.437 281.800 C 347.076 282.350,346.937 282.800,347.127 282.800 C 347.316 282.800,347.677 282.350,347.927 281.800 C 348.178 281.250,348.317 280.800,348.237 280.800 C 348.157 280.800,347.797 281.250,347.437 281.800 M346.000 283.520 C 346.000 283.696,345.190 284.352,344.200 284.978 C 342.115 286.296,341.830 286.715,343.665 285.767 C 345.230 284.957,347.168 283.200,346.496 283.200 C 346.223 283.200,346.000 283.344,346.000 283.520 M340.200 286.800 C 339.696 287.017,339.622 287.144,340.000 287.144 C 340.330 287.144,340.960 286.989,341.400 286.800 C 341.904 286.583,341.978 286.456,341.600 286.456 C 341.270 286.456,340.640 286.611,340.200 286.800 M225.062 287.500 C 224.894 287.771,264.259 287.770,318.800 287.496 C 330.130 287.439,313.716 287.349,282.324 287.296 C 250.932 287.243,225.164 287.335,225.062 287.500 " stroke="none" fill="#6a9ed6" fill-rule="evenodd"></path>
    </g>
</svg>